<svg width="768" height="512" viewBox="0 0 768 512" fill="none" xmlns="http://www.w3.org/2000/svg">
<rect width="768" height="512" fill="#222222"/>
<path d="M223.516 270.458V269.005C225.163 268.908 226.398 268.714 227.221 268.424C228.045 268.133 228.578 267.552 228.82 266.68C229.11 265.808 229.256 264.5 229.256 262.757V226.719C229.256 224.927 229.11 223.619 228.82 222.795C228.578 221.923 228.021 221.342 227.149 221.052C226.325 220.713 225.114 220.519 223.516 220.47V219.017C224.727 219.066 226.228 219.114 228.021 219.163C229.861 219.211 231.678 219.235 233.47 219.235C235.504 219.235 237.393 219.211 239.137 219.163C240.881 219.114 242.285 219.066 243.351 219.017V220.47C241.753 220.519 240.542 220.713 239.718 221.052C238.895 221.342 238.338 221.923 238.047 222.795C237.757 223.619 237.611 224.927 237.611 226.719V262.757C237.611 264.5 237.757 265.808 238.047 266.68C238.338 267.552 238.895 268.133 239.718 268.424C240.542 268.714 241.753 268.908 243.351 269.005V270.458C242.285 270.361 240.881 270.313 239.137 270.313C237.393 270.264 235.504 270.24 233.47 270.24C231.678 270.24 229.861 270.264 228.021 270.313C226.228 270.313 224.727 270.361 223.516 270.458ZM193 270.458V269.005C194.647 268.908 195.882 268.714 196.705 268.424C197.529 268.133 198.062 267.552 198.304 266.68C198.595 265.808 198.74 264.5 198.74 262.757V226.719C198.74 224.927 198.595 223.619 198.304 222.795C198.062 221.923 197.505 221.342 196.633 221.052C195.809 220.713 194.598 220.519 193 220.47V219.017C194.114 219.066 195.543 219.114 197.287 219.163C199.079 219.211 200.992 219.235 203.027 219.235C204.867 219.235 206.659 219.211 208.403 219.163C210.195 219.114 211.673 219.066 212.835 219.017V220.47C211.237 220.519 210.026 220.713 209.202 221.052C208.379 221.342 207.822 221.923 207.531 222.795C207.241 223.619 207.095 224.927 207.095 226.719V262.757C207.095 264.5 207.241 265.808 207.531 266.68C207.822 267.552 208.379 268.133 209.202 268.424C210.026 268.714 211.237 268.908 212.835 269.005V270.458C211.673 270.361 210.195 270.313 208.403 270.313C206.659 270.264 204.867 270.24 203.027 270.24C200.992 270.24 199.079 270.264 197.287 270.313C195.543 270.313 194.114 270.361 193 270.458ZM203.826 245.319V243.866H232.525V245.319H203.826Z" fill="white"/>
<path d="M267.29 218C272.037 218 276.203 219.041 279.787 221.124C283.42 223.207 286.23 226.21 288.216 230.134C290.201 234.009 291.194 238.731 291.194 244.302C291.194 249.727 290.177 254.474 288.143 258.542C286.108 262.611 283.275 265.784 279.642 268.061C276.009 270.337 271.868 271.475 267.218 271.475C262.422 271.475 258.233 270.434 254.648 268.351C251.064 266.268 248.279 263.265 246.293 259.342C244.307 255.418 243.314 250.696 243.314 245.174C243.314 239.749 244.331 235.002 246.365 230.933C248.448 226.864 251.282 223.691 254.866 221.415C258.45 219.138 262.592 218 267.29 218ZM267 219.308C263.997 219.308 261.381 220.398 259.153 222.577C256.925 224.757 255.205 227.76 253.994 231.587C252.783 235.413 252.178 239.845 252.178 244.883C252.178 250.017 252.856 254.498 254.212 258.325C255.568 262.103 257.409 265.033 259.734 267.116C262.059 269.15 264.651 270.168 267.508 270.168C270.512 270.168 273.103 269.078 275.283 266.898C277.511 264.718 279.23 261.715 280.441 257.889C281.701 254.014 282.33 249.581 282.33 244.592C282.33 239.41 281.628 234.929 280.223 231.151C278.867 227.373 277.026 224.466 274.701 222.432C272.425 220.349 269.858 219.308 267 219.308Z" fill="white"/>
<path d="M290.309 219.017C291.423 219.066 292.852 219.114 294.596 219.163C296.388 219.211 298.156 219.235 299.9 219.235C302.225 219.235 304.429 219.211 306.511 219.163C308.643 219.114 310.144 219.09 311.016 219.09C317.168 219.09 321.769 220.422 324.821 223.086C327.873 225.75 329.398 229.189 329.398 233.403C329.398 235.147 329.083 236.988 328.454 238.925C327.873 240.814 326.831 242.582 325.33 244.229C323.828 245.828 321.794 247.135 319.226 248.153C316.659 249.17 313.39 249.678 309.418 249.678H302.297V248.225H308.691C311.936 248.225 314.407 247.571 316.102 246.263C317.846 244.956 319.008 243.236 319.59 241.105C320.219 238.974 320.534 236.673 320.534 234.202C320.534 229.601 319.711 226.162 318.064 223.885C316.417 221.609 313.559 220.47 309.49 220.47C307.408 220.47 306.027 220.882 305.349 221.705C304.719 222.529 304.404 224.2 304.404 226.719V262.611C304.404 264.403 304.598 265.76 304.986 266.68C305.373 267.552 306.1 268.133 307.165 268.424C308.231 268.714 309.805 268.884 311.888 268.932V270.458C310.58 270.361 308.885 270.313 306.802 270.313C304.719 270.264 302.564 270.24 300.336 270.24C298.398 270.24 296.533 270.264 294.741 270.313C292.997 270.313 291.52 270.361 290.309 270.458V269.005C291.956 268.908 293.191 268.714 294.014 268.424C294.838 268.133 295.371 267.552 295.613 266.68C295.904 265.808 296.049 264.5 296.049 262.757V226.719C296.049 224.927 295.904 223.619 295.613 222.795C295.371 221.923 294.814 221.342 293.942 221.052C293.118 220.713 291.907 220.519 290.309 220.47V219.017Z" fill="white"/>
<path d="M327.619 219.017C328.733 219.066 330.162 219.114 331.906 219.163C333.698 219.211 335.466 219.235 337.21 219.235C339.535 219.235 341.739 219.211 343.822 219.163C345.953 219.114 347.455 219.09 348.327 219.09C354.478 219.09 359.08 220.422 362.131 223.086C365.183 225.75 366.709 229.189 366.709 233.403C366.709 235.147 366.394 236.988 365.764 238.925C365.183 240.814 364.141 242.582 362.64 244.229C361.138 245.828 359.104 247.135 356.537 248.153C353.97 249.17 350.7 249.678 346.728 249.678H339.608V248.225H346.002C349.247 248.225 351.717 247.571 353.413 246.263C355.156 244.956 356.319 243.236 356.9 241.105C357.53 238.974 357.845 236.673 357.845 234.202C357.845 229.601 357.021 226.162 355.374 223.885C353.727 221.609 350.87 220.47 346.801 220.47C344.718 220.47 343.337 220.882 342.659 221.705C342.03 222.529 341.715 224.2 341.715 226.719V262.611C341.715 264.403 341.909 265.76 342.296 266.68C342.684 267.552 343.41 268.133 344.476 268.424C345.541 268.714 347.116 268.884 349.198 268.932V270.458C347.891 270.361 346.195 270.313 344.112 270.313C342.03 270.264 339.874 270.24 337.646 270.24C335.708 270.24 333.844 270.264 332.051 270.313C330.308 270.313 328.83 270.361 327.619 270.458V269.005C329.266 268.908 330.501 268.714 331.325 268.424C332.148 268.133 332.681 267.552 332.923 266.68C333.214 265.808 333.359 264.5 333.359 262.757V226.719C333.359 224.927 333.214 223.619 332.923 222.795C332.681 221.923 332.124 221.342 331.252 221.052C330.429 220.713 329.218 220.519 327.619 220.47V219.017Z" fill="white"/>
<path d="M406.998 219.017V220.47C406.029 220.713 405.036 221.391 404.019 222.505C403.05 223.57 401.96 225.266 400.749 227.591L386.436 255.999H384.474L367.473 224.612C366.504 222.868 365.681 221.754 365.002 221.27C364.373 220.785 363.791 220.543 363.259 220.543V219.017C364.324 219.066 365.438 219.114 366.601 219.163C367.763 219.211 369.023 219.235 370.379 219.235C372.123 219.235 374.012 219.235 376.046 219.235C378.081 219.187 379.97 219.114 381.713 219.017V220.543C380.502 220.543 379.413 220.664 378.444 220.906C377.524 221.148 376.894 221.633 376.555 222.359C376.264 223.038 376.458 224.031 377.136 225.338L389.124 248.371L387.962 249.606L396.899 231.805C398.4 228.85 399.151 226.573 399.151 224.975C399.199 223.328 398.667 222.19 397.553 221.56C396.487 220.882 394.937 220.519 392.903 220.47V219.017C394.404 219.066 395.882 219.114 397.335 219.163C398.788 219.211 400.168 219.235 401.476 219.235C402.687 219.235 403.728 219.211 404.6 219.163C405.472 219.114 406.271 219.066 406.998 219.017ZM390.287 247.063V262.757C390.287 264.5 390.432 265.808 390.723 266.68C391.014 267.552 391.571 268.133 392.394 268.424C393.217 268.714 394.428 268.908 396.027 269.005V270.458C394.864 270.361 393.387 270.313 391.595 270.313C389.803 270.264 387.986 270.24 386.145 270.24C384.16 270.24 382.27 270.264 380.478 270.313C378.686 270.313 377.257 270.361 376.192 270.458V269.005C377.838 268.908 379.074 268.714 379.897 268.424C380.72 268.133 381.253 267.552 381.495 266.68C381.786 265.808 381.931 264.5 381.931 262.757V247.862L386.654 252.367L390.287 247.063Z" fill="white"/>
<path d="M457.863 235.65C457.863 238.997 457.375 242.298 456.398 245.553C455.422 248.807 453.958 251.853 452.005 254.689C450.099 257.525 447.774 260.035 445.031 262.221C442.334 264.359 439.243 266.056 435.756 267.311C432.315 268.567 428.526 269.194 424.388 269.194C423.691 269.194 422.761 269.171 421.599 269.125C420.483 269.078 419.297 269.055 418.042 269.055C416.787 269.008 415.555 268.985 414.346 268.985C413.277 268.985 412.161 269.008 410.998 269.055C409.883 269.055 408.813 269.078 407.79 269.125C406.814 269.125 405.977 269.148 405.28 269.194L405.489 267.8C406.977 267.707 408.139 267.521 408.976 267.242C409.859 266.963 410.557 266.405 411.068 265.568C411.58 264.731 412.044 263.476 412.463 261.802L421.599 227.212C422.017 225.724 422.226 224.561 422.226 223.725C422.226 222.841 421.878 222.214 421.18 221.842C420.483 221.47 419.274 221.26 417.554 221.214L417.763 219.819C418.507 219.866 419.39 219.912 420.413 219.959C421.482 220.005 422.622 220.028 423.83 220.028C425.039 220.028 426.178 220.028 427.248 220.028C428.27 219.982 429.433 219.959 430.735 219.959C432.036 219.912 433.315 219.889 434.57 219.889C435.825 219.842 436.895 219.819 437.778 219.819C444.427 219.819 449.425 221.167 452.772 223.864C456.166 226.514 457.863 230.443 457.863 235.65ZM423.83 267.939C427.224 267.939 430.27 267.335 432.966 266.126C435.709 264.871 438.127 263.15 440.219 260.965C442.311 258.734 444.055 256.176 445.449 253.294C446.844 250.411 447.89 247.32 448.588 244.019C449.285 240.671 449.634 237.254 449.634 233.767C449.634 229.583 448.564 226.421 446.426 224.282C444.287 222.144 440.8 221.075 435.965 221.075C434.617 221.075 433.571 221.237 432.827 221.563C432.083 221.888 431.478 222.469 431.013 223.306C430.549 224.143 430.084 225.398 429.619 227.072L420.483 261.942C420.111 263.336 419.902 264.499 419.855 265.429C419.809 266.312 420.064 266.963 420.622 267.381C421.227 267.753 422.296 267.939 423.83 267.939ZM456.605 258.315C454.978 260.593 454.048 262.43 453.815 263.825C453.583 265.173 453.932 266.172 454.861 266.823C455.791 267.428 457.209 267.753 459.116 267.8L458.767 269.194C457.233 269.101 455.768 269.055 454.373 269.055C452.979 269.008 451.653 268.985 450.398 268.985C449.282 268.985 448.353 269.008 447.609 269.055C446.818 269.055 446.051 269.101 445.307 269.194L445.656 267.8C446.353 267.614 447.074 267.288 447.818 266.823C448.515 266.358 449.306 265.684 450.189 264.801C451.026 263.917 451.932 262.755 452.909 261.314L482.687 219.471C483.013 219.471 483.315 219.471 483.594 219.471C483.919 219.471 484.245 219.471 484.57 219.471L487.36 263.336C487.499 265.01 487.918 266.172 488.615 266.823C489.359 267.428 490.08 267.753 490.777 267.8L490.498 269.194C489.475 269.101 488.173 269.055 486.593 269.055C485.012 269.008 483.501 268.985 482.06 268.985C480.246 268.985 478.526 269.008 476.899 269.055C475.272 269.055 473.97 269.101 472.994 269.194L473.273 267.8C475.504 267.707 477.085 267.311 478.015 266.614C478.945 265.87 479.363 264.313 479.27 261.942L477.457 228.258L478.573 227.351L456.605 258.315ZM462.533 249.11H482.897L482.339 250.504H461.277L462.533 249.11ZM513.044 261.802C512.626 263.476 512.463 264.731 512.556 265.568C512.696 266.405 513.137 266.963 513.881 267.242C514.671 267.521 515.857 267.707 517.438 267.8L517.089 269.194C516.345 269.148 515.439 269.125 514.369 269.125C513.3 269.078 512.161 269.055 510.952 269.055C509.743 269.008 508.534 268.985 507.326 268.985C505.373 268.985 503.513 269.008 501.747 269.055C500.026 269.055 498.608 269.101 497.492 269.194L497.841 267.8C499.422 267.707 500.654 267.521 501.537 267.242C502.421 266.963 503.118 266.405 503.629 265.568C504.141 264.731 504.606 263.476 505.024 261.802L509.836 242.694L512.974 247.087L516.113 245.762L518.484 240.183L513.044 261.802ZM536.477 220.238C535.733 220.284 535.035 220.447 534.384 220.726C533.733 221.005 533.106 221.377 532.501 221.842C531.06 222.864 529.363 224.585 527.41 227.002C525.458 229.373 523.435 232.488 521.343 236.347C519.297 240.16 517.322 244.832 515.415 250.365L509.488 250.714C509.302 248.575 509.046 246.274 508.72 243.809C508.441 241.299 508.07 238.835 507.605 236.417C507.186 233.999 506.651 231.791 506.001 229.792C505.396 227.746 504.676 226.119 503.839 224.91C503.002 223.701 502.025 223.097 500.91 223.097C500.119 223.097 499.445 223.376 498.887 223.934C498.376 224.445 497.957 225.259 497.632 226.375L495.819 231.675C495.819 231.675 495.563 231.675 495.052 231.675C494.54 231.675 494.284 231.675 494.284 231.675L496.446 225.398C497.19 223.12 498.143 221.47 499.306 220.447C500.514 219.378 502.165 218.843 504.257 218.843C507 218.843 509.162 219.866 510.743 221.911C512.324 223.911 513.532 226.793 514.369 230.559C515.206 234.325 515.904 238.788 516.461 243.949C518.182 239.486 520.111 235.534 522.25 232.093C524.388 228.606 526.62 225.677 528.945 223.306C530.014 222.19 531.269 221.167 532.711 220.238C534.152 219.308 535.64 218.843 537.174 218.843C538.941 218.843 540.196 219.331 540.94 220.307C541.684 221.284 542.032 222.4 541.986 223.655C541.939 224.817 541.498 225.956 540.661 227.072C539.824 228.141 538.638 228.676 537.104 228.676C535.895 228.676 535.012 228.327 534.454 227.63C533.943 226.933 533.71 226.142 533.757 225.259C533.803 224.236 534.129 223.306 534.733 222.469C535.337 221.586 536.081 220.889 536.965 220.377C536.918 220.331 536.848 220.307 536.755 220.307C536.663 220.261 536.57 220.238 536.477 220.238ZM575.588 219.331C575.123 220.54 574.496 222.307 573.705 224.631C572.915 226.909 572.171 229.885 571.474 233.558H570.079C570.219 232.907 570.311 232.233 570.358 231.535C570.451 230.838 570.497 230.187 570.497 229.583C570.497 227.862 570.126 226.305 569.382 224.91C568.684 223.469 567.615 222.353 566.174 221.563C564.732 220.726 562.849 220.307 560.525 220.307C557.921 220.307 555.713 220.982 553.9 222.33C552.133 223.678 551.249 225.817 551.249 228.746C551.249 230.466 551.668 232.093 552.505 233.628C553.342 235.115 554.388 236.557 555.643 237.951C556.945 239.346 558.34 240.741 559.827 242.136C561.315 243.53 562.71 244.972 564.012 246.46C565.314 247.901 566.383 249.435 567.22 251.062C568.057 252.69 568.475 254.479 568.475 256.432C568.475 258.85 567.894 260.942 566.732 262.709C565.616 264.429 564.151 265.847 562.338 266.963C560.571 268.032 558.619 268.822 556.48 269.334C554.388 269.892 552.319 270.171 550.273 270.171C548.32 270.171 546.67 270.008 545.322 269.683C544.02 269.357 542.927 268.939 542.044 268.427C541.161 267.916 540.37 267.428 539.673 266.963C539.161 266.591 538.673 266.335 538.208 266.196C537.79 266.01 537.441 265.917 537.162 265.917C536.558 265.917 536.046 266.219 535.628 266.823C535.256 267.428 534.814 268.381 534.303 269.683H532.908C533.327 268.66 533.768 267.474 534.233 266.126C534.698 264.778 535.21 263.057 535.767 260.965C536.325 258.827 536.953 256.153 537.65 252.945H539.045C538.813 253.875 538.627 254.805 538.487 255.735C538.394 256.665 538.371 257.594 538.418 258.524C538.557 261.732 539.533 264.243 541.347 266.056C543.206 267.823 546.019 268.706 549.785 268.706C552.853 268.706 555.248 268.032 556.968 266.684C558.735 265.336 559.618 263.267 559.618 260.477C559.618 258.524 559.223 256.781 558.433 255.247C557.689 253.666 556.712 252.201 555.504 250.853C554.341 249.458 553.086 248.11 551.738 246.808C550.389 245.506 549.111 244.158 547.902 242.763C546.74 241.369 545.787 239.834 545.043 238.161C544.299 236.487 543.927 234.627 543.927 232.581C543.927 230.303 544.392 228.304 545.322 226.584C546.252 224.864 547.484 223.446 549.018 222.33C550.552 221.167 552.249 220.307 554.109 219.749C556.015 219.145 557.921 218.843 559.827 218.843C562.059 218.843 563.919 219.122 565.407 219.68C566.941 220.191 568.336 220.912 569.591 221.842C570.102 222.214 570.544 222.516 570.916 222.748C571.334 222.934 571.66 223.027 571.892 223.027C572.543 223.027 573.31 221.795 574.194 219.331H575.588Z" fill="white"/>
<mask id="mask0_108_152" style="mask-type:alpha" maskUnits="userSpaceOnUse" x="193" y="218" width="383" height="54">
<path d="M223.516 270.458V269.005C225.163 268.908 226.398 268.714 227.221 268.424C228.045 268.133 228.578 267.552 228.82 266.68C229.11 265.808 229.256 264.5 229.256 262.757V226.719C229.256 224.927 229.11 223.619 228.82 222.795C228.578 221.923 228.021 221.342 227.149 221.052C226.325 220.713 225.114 220.519 223.516 220.47V219.017C224.727 219.066 226.228 219.114 228.021 219.163C229.861 219.211 231.678 219.235 233.47 219.235C235.504 219.235 237.393 219.211 239.137 219.163C240.881 219.114 242.285 219.066 243.351 219.017V220.47C241.753 220.519 240.542 220.713 239.718 221.052C238.895 221.342 238.338 221.923 238.047 222.795C237.757 223.619 237.611 224.927 237.611 226.719V262.757C237.611 264.5 237.757 265.808 238.047 266.68C238.338 267.552 238.895 268.133 239.718 268.424C240.542 268.714 241.753 268.908 243.351 269.005V270.458C242.285 270.361 240.881 270.313 239.137 270.313C237.393 270.264 235.504 270.24 233.47 270.24C231.678 270.24 229.861 270.264 228.021 270.313C226.228 270.313 224.727 270.361 223.516 270.458ZM193 270.458V269.005C194.647 268.908 195.882 268.714 196.705 268.424C197.529 268.133 198.062 267.552 198.304 266.68C198.595 265.808 198.74 264.5 198.74 262.757V226.719C198.74 224.927 198.595 223.619 198.304 222.795C198.062 221.923 197.505 221.342 196.633 221.052C195.809 220.713 194.598 220.519 193 220.47V219.017C194.114 219.066 195.543 219.114 197.287 219.163C199.079 219.211 200.992 219.235 203.027 219.235C204.867 219.235 206.659 219.211 208.403 219.163C210.195 219.114 211.673 219.066 212.835 219.017V220.47C211.237 220.519 210.026 220.713 209.202 221.052C208.379 221.342 207.822 221.923 207.531 222.795C207.241 223.619 207.095 224.927 207.095 226.719V262.757C207.095 264.5 207.241 265.808 207.531 266.68C207.822 267.552 208.379 268.133 209.202 268.424C210.026 268.714 211.237 268.908 212.835 269.005V270.458C211.673 270.361 210.195 270.313 208.403 270.313C206.659 270.264 204.867 270.24 203.027 270.24C200.992 270.24 199.079 270.264 197.287 270.313C195.543 270.313 194.114 270.361 193 270.458ZM203.826 245.319V243.866H232.525V245.319H203.826Z" fill="white"/>
<path d="M267.29 218C272.037 218 276.203 219.041 279.787 221.124C283.42 223.207 286.23 226.21 288.216 230.134C290.201 234.009 291.194 238.731 291.194 244.302C291.194 249.727 290.177 254.474 288.143 258.542C286.108 262.611 283.275 265.784 279.642 268.061C276.009 270.337 271.868 271.475 267.218 271.475C262.422 271.475 258.233 270.434 254.648 268.351C251.064 266.268 248.279 263.265 246.293 259.342C244.307 255.418 243.314 250.696 243.314 245.174C243.314 239.749 244.331 235.002 246.365 230.933C248.448 226.864 251.282 223.691 254.866 221.415C258.45 219.138 262.592 218 267.29 218ZM267 219.308C263.997 219.308 261.381 220.398 259.153 222.577C256.925 224.757 255.205 227.76 253.994 231.587C252.783 235.413 252.178 239.845 252.178 244.883C252.178 250.017 252.856 254.498 254.212 258.325C255.568 262.103 257.409 265.033 259.734 267.116C262.059 269.15 264.651 270.168 267.508 270.168C270.512 270.168 273.103 269.078 275.283 266.898C277.511 264.718 279.23 261.715 280.441 257.889C281.701 254.014 282.33 249.581 282.33 244.592C282.33 239.41 281.628 234.929 280.223 231.151C278.867 227.373 277.026 224.466 274.701 222.432C272.425 220.349 269.858 219.308 267 219.308Z" fill="white"/>
<path d="M290.309 219.017C291.423 219.066 292.852 219.114 294.596 219.163C296.388 219.211 298.156 219.235 299.9 219.235C302.225 219.235 304.429 219.211 306.511 219.163C308.643 219.114 310.144 219.09 311.016 219.09C317.168 219.09 321.769 220.422 324.821 223.086C327.873 225.75 329.398 229.189 329.398 233.403C329.398 235.147 329.083 236.988 328.454 238.925C327.873 240.814 326.831 242.582 325.33 244.229C323.828 245.828 321.794 247.135 319.226 248.153C316.659 249.17 313.39 249.678 309.418 249.678H302.297V248.225H308.691C311.936 248.225 314.407 247.571 316.102 246.263C317.846 244.956 319.008 243.236 319.59 241.105C320.219 238.974 320.534 236.673 320.534 234.202C320.534 229.601 319.711 226.162 318.064 223.885C316.417 221.609 313.559 220.47 309.49 220.47C307.408 220.47 306.027 220.882 305.349 221.705C304.719 222.529 304.404 224.2 304.404 226.719V262.611C304.404 264.403 304.598 265.76 304.986 266.68C305.373 267.552 306.1 268.133 307.165 268.424C308.231 268.714 309.805 268.884 311.888 268.932V270.458C310.58 270.361 308.885 270.313 306.802 270.313C304.719 270.264 302.564 270.24 300.336 270.24C298.398 270.24 296.533 270.264 294.741 270.313C292.997 270.313 291.52 270.361 290.309 270.458V269.005C291.956 268.908 293.191 268.714 294.014 268.424C294.838 268.133 295.371 267.552 295.613 266.68C295.904 265.808 296.049 264.5 296.049 262.757V226.719C296.049 224.927 295.904 223.619 295.613 222.795C295.371 221.923 294.814 221.342 293.942 221.052C293.118 220.713 291.907 220.519 290.309 220.47V219.017Z" fill="white"/>
<path d="M327.619 219.017C328.733 219.066 330.162 219.114 331.906 219.163C333.698 219.211 335.466 219.235 337.21 219.235C339.535 219.235 341.739 219.211 343.822 219.163C345.953 219.114 347.455 219.09 348.327 219.09C354.478 219.09 359.08 220.422 362.131 223.086C365.183 225.75 366.709 229.189 366.709 233.403C366.709 235.147 366.394 236.988 365.764 238.925C365.183 240.814 364.141 242.582 362.64 244.229C361.138 245.828 359.104 247.135 356.537 248.153C353.97 249.17 350.7 249.678 346.728 249.678H339.608V248.225H346.002C349.247 248.225 351.717 247.571 353.413 246.263C355.156 244.956 356.319 243.236 356.9 241.105C357.53 238.974 357.845 236.673 357.845 234.202C357.845 229.601 357.021 226.162 355.374 223.885C353.727 221.609 350.87 220.47 346.801 220.47C344.718 220.47 343.337 220.882 342.659 221.705C342.03 222.529 341.715 224.2 341.715 226.719V262.611C341.715 264.403 341.909 265.76 342.296 266.68C342.684 267.552 343.41 268.133 344.476 268.424C345.541 268.714 347.116 268.884 349.198 268.932V270.458C347.891 270.361 346.195 270.313 344.112 270.313C342.03 270.264 339.874 270.24 337.646 270.24C335.708 270.24 333.844 270.264 332.051 270.313C330.308 270.313 328.83 270.361 327.619 270.458V269.005C329.266 268.908 330.501 268.714 331.325 268.424C332.148 268.133 332.681 267.552 332.923 266.68C333.214 265.808 333.359 264.5 333.359 262.757V226.719C333.359 224.927 333.214 223.619 332.923 222.795C332.681 221.923 332.124 221.342 331.252 221.052C330.429 220.713 329.218 220.519 327.619 220.47V219.017Z" fill="white"/>
<path d="M406.998 219.017V220.47C406.029 220.713 405.036 221.391 404.019 222.505C403.05 223.57 401.96 225.266 400.749 227.591L386.436 255.999H384.474L367.473 224.612C366.504 222.868 365.681 221.754 365.002 221.27C364.373 220.785 363.791 220.543 363.259 220.543V219.017C364.324 219.066 365.438 219.114 366.601 219.163C367.763 219.211 369.023 219.235 370.379 219.235C372.123 219.235 374.012 219.235 376.046 219.235C378.081 219.187 379.97 219.114 381.713 219.017V220.543C380.502 220.543 379.413 220.664 378.444 220.906C377.524 221.148 376.894 221.633 376.555 222.359C376.264 223.038 376.458 224.031 377.136 225.338L389.124 248.371L387.962 249.606L396.899 231.805C398.4 228.85 399.151 226.573 399.151 224.975C399.199 223.328 398.667 222.19 397.553 221.56C396.487 220.882 394.937 220.519 392.903 220.47V219.017C394.404 219.066 395.882 219.114 397.335 219.163C398.788 219.211 400.168 219.235 401.476 219.235C402.687 219.235 403.728 219.211 404.6 219.163C405.472 219.114 406.271 219.066 406.998 219.017ZM390.287 247.063V262.757C390.287 264.5 390.432 265.808 390.723 266.68C391.014 267.552 391.571 268.133 392.394 268.424C393.217 268.714 394.428 268.908 396.027 269.005V270.458C394.864 270.361 393.387 270.313 391.595 270.313C389.803 270.264 387.986 270.24 386.145 270.24C384.16 270.24 382.27 270.264 380.478 270.313C378.686 270.313 377.257 270.361 376.192 270.458V269.005C377.838 268.908 379.074 268.714 379.897 268.424C380.72 268.133 381.253 267.552 381.495 266.68C381.786 265.808 381.931 264.5 381.931 262.757V247.862L386.654 252.367L390.287 247.063Z" fill="white"/>
<path d="M457.863 235.65C457.863 238.997 457.375 242.298 456.398 245.553C455.422 248.807 453.958 251.853 452.005 254.689C450.099 257.525 447.774 260.035 445.031 262.221C442.334 264.359 439.243 266.056 435.756 267.311C432.315 268.567 428.526 269.194 424.388 269.194C423.691 269.194 422.761 269.171 421.599 269.125C420.483 269.078 419.297 269.055 418.042 269.055C416.787 269.008 415.555 268.985 414.346 268.985C413.277 268.985 412.161 269.008 410.998 269.055C409.883 269.055 408.813 269.078 407.79 269.125C406.814 269.125 405.977 269.148 405.28 269.194L405.489 267.8C406.977 267.707 408.139 267.521 408.976 267.242C409.859 266.963 410.557 266.405 411.068 265.568C411.58 264.731 412.044 263.476 412.463 261.802L421.599 227.212C422.017 225.724 422.226 224.561 422.226 223.725C422.226 222.841 421.878 222.214 421.18 221.842C420.483 221.47 419.274 221.26 417.554 221.214L417.763 219.819C418.507 219.866 419.39 219.912 420.413 219.959C421.482 220.005 422.622 220.028 423.83 220.028C425.039 220.028 426.178 220.028 427.248 220.028C428.27 219.982 429.433 219.959 430.735 219.959C432.036 219.912 433.315 219.889 434.57 219.889C435.825 219.842 436.895 219.819 437.778 219.819C444.427 219.819 449.425 221.167 452.772 223.864C456.166 226.514 457.863 230.443 457.863 235.65ZM423.83 267.939C427.224 267.939 430.27 267.335 432.966 266.126C435.709 264.871 438.127 263.15 440.219 260.965C442.311 258.734 444.055 256.176 445.449 253.294C446.844 250.411 447.89 247.32 448.588 244.019C449.285 240.671 449.634 237.254 449.634 233.767C449.634 229.583 448.564 226.421 446.426 224.282C444.287 222.144 440.8 221.075 435.965 221.075C434.617 221.075 433.571 221.237 432.827 221.563C432.083 221.888 431.478 222.469 431.013 223.306C430.549 224.143 430.084 225.398 429.619 227.072L420.483 261.942C420.111 263.336 419.902 264.499 419.855 265.429C419.809 266.312 420.064 266.963 420.622 267.381C421.227 267.753 422.296 267.939 423.83 267.939ZM456.605 258.315C454.978 260.593 454.048 262.43 453.815 263.825C453.583 265.173 453.932 266.172 454.861 266.823C455.791 267.428 457.209 267.753 459.116 267.8L458.767 269.194C457.233 269.101 455.768 269.055 454.373 269.055C452.979 269.008 451.653 268.985 450.398 268.985C449.282 268.985 448.353 269.008 447.609 269.055C446.818 269.055 446.051 269.101 445.307 269.194L445.656 267.8C446.353 267.614 447.074 267.288 447.818 266.823C448.515 266.358 449.306 265.684 450.189 264.801C451.026 263.917 451.932 262.755 452.909 261.314L482.687 219.471C483.013 219.471 483.315 219.471 483.594 219.471C483.919 219.471 484.245 219.471 484.57 219.471L487.36 263.336C487.499 265.01 487.918 266.172 488.615 266.823C489.359 267.428 490.08 267.753 490.777 267.8L490.498 269.194C489.475 269.101 488.173 269.055 486.593 269.055C485.012 269.008 483.501 268.985 482.06 268.985C480.246 268.985 478.526 269.008 476.899 269.055C475.272 269.055 473.97 269.101 472.994 269.194L473.273 267.8C475.504 267.707 477.085 267.311 478.015 266.614C478.945 265.87 479.363 264.313 479.27 261.942L477.457 228.258L478.573 227.351L456.605 258.315ZM462.533 249.11H482.897L482.339 250.504H461.277L462.533 249.11ZM513.044 261.802C512.626 263.476 512.463 264.731 512.556 265.568C512.696 266.405 513.137 266.963 513.881 267.242C514.671 267.521 515.857 267.707 517.438 267.8L517.089 269.194C516.345 269.148 515.439 269.125 514.369 269.125C513.3 269.078 512.161 269.055 510.952 269.055C509.743 269.008 508.534 268.985 507.326 268.985C505.373 268.985 503.513 269.008 501.747 269.055C500.026 269.055 498.608 269.101 497.492 269.194L497.841 267.8C499.422 267.707 500.654 267.521 501.537 267.242C502.421 266.963 503.118 266.405 503.629 265.568C504.141 264.731 504.606 263.476 505.024 261.802L509.836 242.694L512.974 247.087L516.113 245.762L518.484 240.183L513.044 261.802ZM536.477 220.238C535.733 220.284 535.035 220.447 534.384 220.726C533.733 221.005 533.106 221.377 532.501 221.842C531.06 222.864 529.363 224.585 527.41 227.002C525.458 229.373 523.435 232.488 521.343 236.347C519.297 240.16 517.322 244.832 515.415 250.365L509.488 250.714C509.302 248.575 509.046 246.274 508.72 243.809C508.441 241.299 508.07 238.835 507.605 236.417C507.186 233.999 506.651 231.791 506.001 229.792C505.396 227.746 504.676 226.119 503.839 224.91C503.002 223.701 502.025 223.097 500.91 223.097C500.119 223.097 499.445 223.376 498.887 223.934C498.376 224.445 497.957 225.259 497.632 226.375L495.819 231.675C495.819 231.675 495.563 231.675 495.052 231.675C494.54 231.675 494.284 231.675 494.284 231.675L496.446 225.398C497.19 223.12 498.143 221.47 499.306 220.447C500.514 219.378 502.165 218.843 504.257 218.843C507 218.843 509.162 219.866 510.743 221.911C512.324 223.911 513.532 226.793 514.369 230.559C515.206 234.325 515.904 238.788 516.461 243.949C518.182 239.486 520.111 235.534 522.25 232.093C524.388 228.606 526.62 225.677 528.945 223.306C530.014 222.19 531.269 221.167 532.711 220.238C534.152 219.308 535.64 218.843 537.174 218.843C538.941 218.843 540.196 219.331 540.94 220.307C541.684 221.284 542.032 222.4 541.986 223.655C541.939 224.817 541.498 225.956 540.661 227.072C539.824 228.141 538.638 228.676 537.104 228.676C535.895 228.676 535.012 228.327 534.454 227.63C533.943 226.933 533.71 226.142 533.757 225.259C533.803 224.236 534.129 223.306 534.733 222.469C535.337 221.586 536.081 220.889 536.965 220.377C536.918 220.331 536.848 220.307 536.755 220.307C536.663 220.261 536.57 220.238 536.477 220.238ZM575.588 219.331C575.123 220.54 574.496 222.307 573.705 224.631C572.915 226.909 572.171 229.885 571.474 233.558H570.079C570.219 232.907 570.311 232.233 570.358 231.535C570.451 230.838 570.497 230.187 570.497 229.583C570.497 227.862 570.126 226.305 569.382 224.91C568.684 223.469 567.615 222.353 566.174 221.563C564.732 220.726 562.849 220.307 560.525 220.307C557.921 220.307 555.713 220.982 553.9 222.33C552.133 223.678 551.249 225.817 551.249 228.746C551.249 230.466 551.668 232.093 552.505 233.628C553.342 235.115 554.388 236.557 555.643 237.951C556.945 239.346 558.34 240.741 559.827 242.136C561.315 243.53 562.71 244.972 564.012 246.46C565.314 247.901 566.383 249.435 567.22 251.062C568.057 252.69 568.475 254.479 568.475 256.432C568.475 258.85 567.894 260.942 566.732 262.709C565.616 264.429 564.151 265.847 562.338 266.963C560.571 268.032 558.619 268.822 556.48 269.334C554.388 269.892 552.319 270.171 550.273 270.171C548.32 270.171 546.67 270.008 545.322 269.683C544.02 269.357 542.927 268.939 542.044 268.427C541.161 267.916 540.37 267.428 539.673 266.963C539.161 266.591 538.673 266.335 538.208 266.196C537.79 266.01 537.441 265.917 537.162 265.917C536.558 265.917 536.046 266.219 535.628 266.823C535.256 267.428 534.814 268.381 534.303 269.683H532.908C533.327 268.66 533.768 267.474 534.233 266.126C534.698 264.778 535.21 263.057 535.767 260.965C536.325 258.827 536.953 256.153 537.65 252.945H539.045C538.813 253.875 538.627 254.805 538.487 255.735C538.394 256.665 538.371 257.594 538.418 258.524C538.557 261.732 539.533 264.243 541.347 266.056C543.206 267.823 546.019 268.706 549.785 268.706C552.853 268.706 555.248 268.032 556.968 266.684C558.735 265.336 559.618 263.267 559.618 260.477C559.618 258.524 559.223 256.781 558.433 255.247C557.689 253.666 556.712 252.201 555.504 250.853C554.341 249.458 553.086 248.11 551.738 246.808C550.389 245.506 549.111 244.158 547.902 242.763C546.74 241.369 545.787 239.834 545.043 238.161C544.299 236.487 543.927 234.627 543.927 232.581C543.927 230.303 544.392 228.304 545.322 226.584C546.252 224.864 547.484 223.446 549.018 222.33C550.552 221.167 552.249 220.307 554.109 219.749C556.015 219.145 557.921 218.843 559.827 218.843C562.059 218.843 563.919 219.122 565.407 219.68C566.941 220.191 568.336 220.912 569.591 221.842C570.102 222.214 570.544 222.516 570.916 222.748C571.334 222.934 571.66 223.027 571.892 223.027C572.543 223.027 573.31 221.795 574.194 219.331H575.588Z" fill="white"/>
</mask>
<g mask="url(#mask0_108_152)">
<path d="M89.003 169.119C47.5051 156.878 11.6591 146.304 -16.3286 140.864V513.718H980.474V105.86C945.586 110.022 916.64 126.357 875.142 141.512C768.843 180.334 625.458 232.701 482.073 237.736C338.688 242.771 195.303 200.475 89.003 169.119Z" fill="url(#paint0_radial_108_152)" fill-opacity="0.3"/>
<path d="M875.142 201.403C916.64 190.309 938.11 182.158 980.474 175.795V513.718H-16.3286V144.07C21.8821 149.282 47.505 162.647 89.0027 176.383C195.302 211.568 338.687 259.028 482.073 263.592C625.458 268.155 768.843 229.822 875.142 201.403Z" fill="url(#paint1_radial_108_152)"/>
</g>
<path d="M339.414 295.444V313H337.854L327.481 298.298H327.344V313H325.741V295.444H327.292L337.699 310.163H337.836V295.444H339.414ZM350.813 313.274C349.676 313.274 348.67 312.986 347.796 312.409C346.927 311.831 346.247 311.034 345.756 310.017C345.264 308.994 345.018 307.814 345.018 306.476C345.018 305.128 345.264 303.942 345.756 302.919C346.247 301.89 346.927 301.09 347.796 300.519C348.67 299.941 349.676 299.653 350.813 299.653C351.951 299.653 352.954 299.941 353.822 300.519C354.691 301.096 355.371 301.896 355.862 302.919C356.36 303.942 356.608 305.128 356.608 306.476C356.608 307.814 356.363 308.994 355.871 310.017C355.38 311.034 354.697 311.831 353.822 312.409C352.954 312.986 351.951 313.274 350.813 313.274ZM350.813 311.877C351.728 311.877 352.502 311.631 353.136 311.14C353.771 310.648 354.251 309.994 354.577 309.177C354.908 308.359 355.074 307.459 355.074 306.476C355.074 305.493 354.908 304.59 354.577 303.767C354.251 302.945 353.771 302.284 353.136 301.787C352.502 301.29 351.728 301.041 350.813 301.041C349.905 301.041 349.13 301.29 348.49 301.787C347.856 302.284 347.373 302.945 347.041 303.767C346.716 304.59 346.553 305.493 346.553 306.476C346.553 307.459 346.716 308.359 347.041 309.177C347.373 309.994 347.856 310.648 348.49 311.14C349.125 311.631 349.899 311.877 350.813 311.877ZM370.627 313V299.833H372.161V313H370.627ZM371.407 297.57C371.093 297.57 370.824 297.464 370.601 297.252C370.378 297.035 370.267 296.775 370.267 296.472C370.267 296.169 370.378 295.912 370.601 295.701C370.824 295.484 371.093 295.375 371.407 295.375C371.721 295.375 371.99 295.484 372.213 295.701C372.436 295.912 372.547 296.169 372.547 296.472C372.547 296.775 372.436 297.035 372.213 297.252C371.99 297.464 371.721 297.57 371.407 297.57ZM378.128 313V299.833H379.611V301.856H379.748C380.011 301.176 380.448 300.641 381.06 300.253C381.677 299.858 382.417 299.661 383.28 299.661C384.189 299.661 384.935 299.876 385.517 300.304C386.106 300.727 386.546 301.31 386.838 302.053H386.949C387.246 301.321 387.729 300.741 388.398 300.313C389.072 299.878 389.889 299.661 390.85 299.661C392.073 299.661 393.038 300.047 393.747 300.819C394.456 301.584 394.81 302.704 394.81 304.179V313H393.284V304.179C393.284 303.139 393.018 302.359 392.487 301.839C391.955 301.319 391.255 301.059 390.387 301.059C389.381 301.059 388.606 301.367 388.063 301.984C387.521 302.602 387.249 303.385 387.249 304.333V313H385.689V304.042C385.689 303.15 385.44 302.43 384.943 301.882C384.446 301.333 383.746 301.059 382.843 301.059C382.237 301.059 381.691 301.207 381.206 301.504C380.725 301.802 380.345 302.216 380.065 302.747C379.791 303.273 379.654 303.879 379.654 304.565V313H378.128ZM404.459 313.3C403.664 313.3 402.938 313.146 402.281 312.837C401.624 312.523 401.101 312.071 400.712 311.483C400.324 310.888 400.129 310.168 400.129 309.322C400.129 308.671 400.252 308.122 400.498 307.677C400.744 307.231 401.092 306.865 401.544 306.579C401.995 306.293 402.53 306.068 403.147 305.902C403.764 305.736 404.444 305.608 405.187 305.516C405.924 305.425 406.547 305.345 407.056 305.276C407.57 305.208 407.962 305.099 408.23 304.95C408.499 304.802 408.633 304.562 408.633 304.23V303.922C408.633 303.025 408.365 302.319 407.827 301.804C407.296 301.284 406.53 301.024 405.53 301.024C404.581 301.024 403.807 301.233 403.207 301.65C402.613 302.067 402.195 302.559 401.955 303.125L400.507 302.602C400.804 301.882 401.215 301.307 401.741 300.879C402.267 300.444 402.855 300.133 403.507 299.944C404.158 299.75 404.819 299.653 405.487 299.653C405.99 299.653 406.513 299.718 407.056 299.85C407.605 299.981 408.113 300.21 408.582 300.536C409.05 300.856 409.431 301.304 409.722 301.882C410.013 302.453 410.159 303.179 410.159 304.059V313H408.633V310.917H408.539C408.356 311.306 408.085 311.683 407.725 312.048C407.365 312.414 406.913 312.714 406.37 312.949C405.827 313.183 405.19 313.3 404.459 313.3ZM404.664 311.903C405.476 311.903 406.179 311.723 406.773 311.363C407.367 311.003 407.825 310.525 408.145 309.931C408.47 309.331 408.633 308.671 408.633 307.951V306.048C408.519 306.156 408.328 306.253 408.059 306.339C407.796 306.425 407.49 306.502 407.142 306.571C406.799 306.634 406.456 306.688 406.113 306.734C405.77 306.779 405.461 306.819 405.187 306.854C404.444 306.945 403.81 307.088 403.284 307.282C402.758 307.476 402.355 307.745 402.075 308.088C401.795 308.425 401.655 308.86 401.655 309.391C401.655 310.191 401.941 310.811 402.513 311.251C403.084 311.686 403.801 311.903 404.664 311.903ZM421.173 318.212C420.276 318.212 419.49 318.095 418.815 317.861C418.141 317.632 417.572 317.318 417.11 316.918C416.647 316.518 416.287 316.069 416.029 315.572L417.281 314.749C417.47 315.08 417.721 315.406 418.035 315.726C418.355 316.046 418.77 316.312 419.278 316.523C419.793 316.735 420.424 316.84 421.173 316.84C422.339 316.84 423.279 316.549 423.993 315.966C424.713 315.383 425.073 314.477 425.073 313.249V310.283H424.936C424.759 310.683 424.505 311.083 424.173 311.483C423.842 311.877 423.407 312.206 422.87 312.469C422.339 312.731 421.679 312.863 420.89 312.863C419.838 312.863 418.904 312.603 418.087 312.083C417.275 311.563 416.635 310.82 416.167 309.854C415.704 308.882 415.472 307.725 415.472 306.382C415.472 305.05 415.698 303.879 416.149 302.867C416.607 301.856 417.244 301.067 418.061 300.501C418.878 299.936 419.83 299.653 420.916 299.653C421.722 299.653 422.39 299.796 422.922 300.081C423.453 300.361 423.879 300.71 424.199 301.127C424.525 301.544 424.779 301.95 424.962 302.344H425.116V299.833H426.608V313.343C426.608 314.457 426.371 315.375 425.896 316.095C425.422 316.815 424.776 317.346 423.959 317.689C423.142 318.038 422.213 318.212 421.173 318.212ZM421.07 311.466C421.916 311.466 422.639 311.263 423.239 310.857C423.839 310.445 424.299 309.857 424.619 309.091C424.939 308.325 425.099 307.414 425.099 306.356C425.099 305.328 424.942 304.416 424.628 303.622C424.313 302.822 423.856 302.193 423.256 301.736C422.662 301.273 421.933 301.041 421.07 301.041C420.19 301.041 419.447 301.279 418.841 301.753C418.235 302.227 417.778 302.867 417.47 303.673C417.161 304.473 417.007 305.368 417.007 306.356C417.007 307.362 417.164 308.251 417.478 309.022C417.792 309.788 418.253 310.388 418.858 310.823C419.464 311.251 420.201 311.466 421.07 311.466ZM437.902 313.274C436.674 313.274 435.611 312.989 434.713 312.417C433.816 311.84 433.122 311.043 432.63 310.025C432.144 309.002 431.902 307.825 431.902 306.494C431.902 305.168 432.144 303.99 432.63 302.962C433.122 301.927 433.799 301.119 434.662 300.536C435.531 299.947 436.534 299.653 437.671 299.653C438.385 299.653 439.074 299.784 439.737 300.047C440.4 300.304 440.994 300.701 441.52 301.239C442.051 301.77 442.471 302.442 442.78 303.253C443.089 304.059 443.243 305.013 443.243 306.116V306.871H432.956V305.525H441.683C441.683 304.679 441.511 303.919 441.168 303.245C440.831 302.564 440.36 302.027 439.754 301.633C439.154 301.239 438.459 301.041 437.671 301.041C436.836 301.041 436.102 301.264 435.468 301.71C434.833 302.156 434.336 302.745 433.976 303.476C433.622 304.208 433.442 305.008 433.436 305.876V306.682C433.436 307.728 433.616 308.642 433.976 309.425C434.342 310.203 434.859 310.805 435.528 311.234C436.196 311.663 436.988 311.877 437.902 311.877C438.525 311.877 439.071 311.78 439.54 311.586C440.014 311.391 440.411 311.131 440.731 310.805C441.057 310.474 441.303 310.111 441.468 309.717L442.917 310.188C442.717 310.743 442.389 311.254 441.931 311.723C441.48 312.191 440.914 312.569 440.234 312.854C439.56 313.134 438.782 313.274 437.902 313.274Z" fill="white"/>
<defs>
<radialGradient id="paint0_radial_108_152" cx="0" cy="0" r="1" gradientUnits="userSpaceOnUse" gradientTransform="translate(482.073 105.86) rotate(90) scale(407.858 540.204)">
<stop stop-color="#FFE349"/>
<stop offset="1" stop-color="#FFE349"/>
</radialGradient>
<radialGradient id="paint1_radial_108_152" cx="0" cy="0" r="1" gradientUnits="userSpaceOnUse" gradientTransform="translate(482.073 144.071) rotate(90) scale(369.648 540.204)">
<stop stop-color="#FFE349"/>
<stop offset="1" stop-color="#FFE349"/>
</radialGradient>
</defs>
</svg>
