<svg width="768" height="512" viewBox="0 0 768 512" fill="none" xmlns="http://www.w3.org/2000/svg">
<rect width="768" height="512" fill="#222222"/>
<path d="M223.516 264.458V263.005C225.163 262.908 226.398 262.714 227.221 262.424C228.045 262.133 228.578 261.552 228.82 260.68C229.11 259.808 229.256 258.5 229.256 256.757V220.719C229.256 218.927 229.11 217.619 228.82 216.795C228.578 215.923 228.021 215.342 227.149 215.052C226.325 214.713 225.114 214.519 223.516 214.47V213.017C224.727 213.066 226.228 213.114 228.021 213.163C229.861 213.211 231.678 213.235 233.47 213.235C235.504 213.235 237.393 213.211 239.137 213.163C240.881 213.114 242.285 213.066 243.351 213.017V214.47C241.753 214.519 240.542 214.713 239.718 215.052C238.895 215.342 238.338 215.923 238.047 216.795C237.757 217.619 237.611 218.927 237.611 220.719V256.757C237.611 258.5 237.757 259.808 238.047 260.68C238.338 261.552 238.895 262.133 239.718 262.424C240.542 262.714 241.753 262.908 243.351 263.005V264.458C242.285 264.361 240.881 264.313 239.137 264.313C237.393 264.264 235.504 264.24 233.47 264.24C231.678 264.24 229.861 264.264 228.021 264.313C226.228 264.313 224.727 264.361 223.516 264.458ZM193 264.458V263.005C194.647 262.908 195.882 262.714 196.705 262.424C197.529 262.133 198.062 261.552 198.304 260.68C198.595 259.808 198.74 258.5 198.74 256.757V220.719C198.74 218.927 198.595 217.619 198.304 216.795C198.062 215.923 197.505 215.342 196.633 215.052C195.809 214.713 194.598 214.519 193 214.47V213.017C194.114 213.066 195.543 213.114 197.287 213.163C199.079 213.211 200.992 213.235 203.027 213.235C204.867 213.235 206.659 213.211 208.403 213.163C210.195 213.114 211.673 213.066 212.835 213.017V214.47C211.237 214.519 210.026 214.713 209.202 215.052C208.379 215.342 207.822 215.923 207.531 216.795C207.241 217.619 207.095 218.927 207.095 220.719V256.757C207.095 258.5 207.241 259.808 207.531 260.68C207.822 261.552 208.379 262.133 209.202 262.424C210.026 262.714 211.237 262.908 212.835 263.005V264.458C211.673 264.361 210.195 264.313 208.403 264.313C206.659 264.264 204.867 264.24 203.027 264.24C200.992 264.24 199.079 264.264 197.287 264.313C195.543 264.313 194.114 264.361 193 264.458ZM203.826 239.319V237.866H232.525V239.319H203.826Z" fill="white"/>
<path d="M267.29 212C272.037 212 276.203 213.041 279.787 215.124C283.42 217.207 286.23 220.21 288.216 224.134C290.201 228.009 291.194 232.731 291.194 238.302C291.194 243.727 290.177 248.474 288.143 252.542C286.108 256.611 283.275 259.784 279.642 262.061C276.009 264.337 271.868 265.475 267.218 265.475C262.422 265.475 258.233 264.434 254.648 262.351C251.064 260.268 248.279 257.265 246.293 253.342C244.307 249.418 243.314 244.696 243.314 239.174C243.314 233.749 244.331 229.002 246.365 224.933C248.448 220.864 251.282 217.691 254.866 215.415C258.45 213.138 262.592 212 267.29 212ZM267 213.308C263.997 213.308 261.381 214.398 259.153 216.577C256.925 218.757 255.205 221.76 253.994 225.587C252.783 229.413 252.178 233.845 252.178 238.883C252.178 244.017 252.856 248.498 254.212 252.325C255.568 256.103 257.409 259.033 259.734 261.116C262.059 263.15 264.651 264.168 267.508 264.168C270.512 264.168 273.103 263.078 275.283 260.898C277.511 258.718 279.23 255.715 280.441 251.889C281.701 248.014 282.33 243.581 282.33 238.592C282.33 233.41 281.628 228.929 280.223 225.151C278.867 221.373 277.026 218.466 274.701 216.432C272.425 214.349 269.858 213.308 267 213.308Z" fill="white"/>
<path d="M290.309 213.017C291.423 213.066 292.852 213.114 294.596 213.163C296.388 213.211 298.156 213.235 299.9 213.235C302.225 213.235 304.429 213.211 306.511 213.163C308.643 213.114 310.144 213.09 311.016 213.09C317.168 213.09 321.769 214.422 324.821 217.086C327.873 219.75 329.398 223.189 329.398 227.403C329.398 229.147 329.083 230.988 328.454 232.925C327.873 234.814 326.831 236.582 325.33 238.229C323.828 239.828 321.794 241.135 319.226 242.153C316.659 243.17 313.39 243.678 309.418 243.678H302.297V242.225H308.691C311.936 242.225 314.407 241.571 316.102 240.263C317.846 238.956 319.008 237.236 319.59 235.105C320.219 232.974 320.534 230.673 320.534 228.202C320.534 223.601 319.711 220.162 318.064 217.885C316.417 215.609 313.559 214.47 309.49 214.47C307.408 214.47 306.027 214.882 305.349 215.705C304.719 216.529 304.404 218.2 304.404 220.719V256.611C304.404 258.403 304.598 259.76 304.986 260.68C305.373 261.552 306.1 262.133 307.165 262.424C308.231 262.714 309.805 262.884 311.888 262.932V264.458C310.58 264.361 308.885 264.313 306.802 264.313C304.719 264.264 302.564 264.24 300.336 264.24C298.398 264.24 296.533 264.264 294.741 264.313C292.997 264.313 291.52 264.361 290.309 264.458V263.005C291.956 262.908 293.191 262.714 294.014 262.424C294.838 262.133 295.371 261.552 295.613 260.68C295.904 259.808 296.049 258.5 296.049 256.757V220.719C296.049 218.927 295.904 217.619 295.613 216.795C295.371 215.923 294.814 215.342 293.942 215.052C293.118 214.713 291.907 214.519 290.309 214.47V213.017Z" fill="white"/>
<path d="M327.619 213.017C328.733 213.066 330.162 213.114 331.906 213.163C333.698 213.211 335.466 213.235 337.21 213.235C339.535 213.235 341.739 213.211 343.822 213.163C345.953 213.114 347.455 213.09 348.327 213.09C354.478 213.09 359.08 214.422 362.131 217.086C365.183 219.75 366.709 223.189 366.709 227.403C366.709 229.147 366.394 230.988 365.764 232.925C365.183 234.814 364.141 236.582 362.64 238.229C361.138 239.828 359.104 241.135 356.537 242.153C353.97 243.17 350.7 243.678 346.728 243.678H339.608V242.225H346.002C349.247 242.225 351.717 241.571 353.413 240.263C355.156 238.956 356.319 237.236 356.9 235.105C357.53 232.974 357.845 230.673 357.845 228.202C357.845 223.601 357.021 220.162 355.374 217.885C353.727 215.609 350.87 214.47 346.801 214.47C344.718 214.47 343.337 214.882 342.659 215.705C342.03 216.529 341.715 218.2 341.715 220.719V256.611C341.715 258.403 341.909 259.76 342.296 260.68C342.684 261.552 343.41 262.133 344.476 262.424C345.541 262.714 347.116 262.884 349.198 262.932V264.458C347.891 264.361 346.195 264.313 344.112 264.313C342.03 264.264 339.874 264.24 337.646 264.24C335.708 264.24 333.844 264.264 332.051 264.313C330.308 264.313 328.83 264.361 327.619 264.458V263.005C329.266 262.908 330.501 262.714 331.325 262.424C332.148 262.133 332.681 261.552 332.923 260.68C333.214 259.808 333.359 258.5 333.359 256.757V220.719C333.359 218.927 333.214 217.619 332.923 216.795C332.681 215.923 332.124 215.342 331.252 215.052C330.429 214.713 329.218 214.519 327.619 214.47V213.017Z" fill="white"/>
<path d="M406.998 213.017V214.47C406.029 214.713 405.036 215.391 404.019 216.505C403.05 217.57 401.96 219.266 400.749 221.591L386.436 249.999H384.474L367.473 218.612C366.504 216.868 365.681 215.754 365.002 215.27C364.373 214.785 363.791 214.543 363.259 214.543V213.017C364.324 213.066 365.438 213.114 366.601 213.163C367.763 213.211 369.023 213.235 370.379 213.235C372.123 213.235 374.012 213.235 376.046 213.235C378.081 213.187 379.97 213.114 381.713 213.017V214.543C380.502 214.543 379.413 214.664 378.444 214.906C377.524 215.148 376.894 215.633 376.555 216.359C376.264 217.038 376.458 218.031 377.136 219.338L389.124 242.371L387.962 243.606L396.899 225.805C398.4 222.85 399.151 220.573 399.151 218.975C399.199 217.328 398.667 216.19 397.553 215.56C396.487 214.882 394.937 214.519 392.903 214.47V213.017C394.404 213.066 395.882 213.114 397.335 213.163C398.788 213.211 400.168 213.235 401.476 213.235C402.687 213.235 403.728 213.211 404.6 213.163C405.472 213.114 406.271 213.066 406.998 213.017ZM390.287 241.063V256.757C390.287 258.5 390.432 259.808 390.723 260.68C391.014 261.552 391.571 262.133 392.394 262.424C393.217 262.714 394.428 262.908 396.027 263.005V264.458C394.864 264.361 393.387 264.313 391.595 264.313C389.803 264.264 387.986 264.24 386.145 264.24C384.16 264.24 382.27 264.264 380.478 264.313C378.686 264.313 377.257 264.361 376.192 264.458V263.005C377.838 262.908 379.074 262.714 379.897 262.424C380.72 262.133 381.253 261.552 381.495 260.68C381.786 259.808 381.931 258.5 381.931 256.757V241.862L386.654 246.367L390.287 241.063Z" fill="white"/>
<path d="M457.863 229.65C457.863 232.997 457.375 236.298 456.398 239.553C455.422 242.807 453.958 245.853 452.005 248.689C450.099 251.525 447.774 254.035 445.031 256.221C442.334 258.359 439.243 260.056 435.756 261.311C432.315 262.567 428.526 263.194 424.388 263.194C423.691 263.194 422.761 263.171 421.599 263.125C420.483 263.078 419.297 263.055 418.042 263.055C416.787 263.008 415.555 262.985 414.346 262.985C413.277 262.985 412.161 263.008 410.998 263.055C409.883 263.055 408.813 263.078 407.79 263.125C406.814 263.125 405.977 263.148 405.28 263.194L405.489 261.8C406.977 261.707 408.139 261.521 408.976 261.242C409.859 260.963 410.557 260.405 411.068 259.568C411.58 258.731 412.044 257.476 412.463 255.802L421.599 221.212C422.017 219.724 422.226 218.561 422.226 217.725C422.226 216.841 421.878 216.214 421.18 215.842C420.483 215.47 419.274 215.26 417.554 215.214L417.763 213.819C418.507 213.866 419.39 213.912 420.413 213.959C421.482 214.005 422.622 214.028 423.83 214.028C425.039 214.028 426.178 214.028 427.248 214.028C428.27 213.982 429.433 213.959 430.735 213.959C432.036 213.912 433.315 213.889 434.57 213.889C435.825 213.842 436.895 213.819 437.778 213.819C444.427 213.819 449.425 215.167 452.772 217.864C456.166 220.514 457.863 224.443 457.863 229.65ZM423.83 261.939C427.224 261.939 430.27 261.335 432.966 260.126C435.709 258.871 438.127 257.15 440.219 254.965C442.311 252.734 444.055 250.176 445.449 247.294C446.844 244.411 447.89 241.32 448.588 238.019C449.285 234.671 449.634 231.254 449.634 227.767C449.634 223.583 448.564 220.421 446.426 218.282C444.287 216.144 440.8 215.075 435.965 215.075C434.617 215.075 433.571 215.237 432.827 215.563C432.083 215.888 431.478 216.469 431.013 217.306C430.549 218.143 430.084 219.398 429.619 221.072L420.483 255.942C420.111 257.336 419.902 258.499 419.855 259.429C419.809 260.312 420.064 260.963 420.622 261.381C421.227 261.753 422.296 261.939 423.83 261.939ZM456.605 252.315C454.978 254.593 454.048 256.43 453.815 257.825C453.583 259.173 453.932 260.172 454.861 260.823C455.791 261.428 457.209 261.753 459.116 261.8L458.767 263.194C457.233 263.101 455.768 263.055 454.373 263.055C452.979 263.008 451.653 262.985 450.398 262.985C449.282 262.985 448.353 263.008 447.609 263.055C446.818 263.055 446.051 263.101 445.307 263.194L445.656 261.8C446.353 261.614 447.074 261.288 447.818 260.823C448.515 260.358 449.306 259.684 450.189 258.801C451.026 257.917 451.932 256.755 452.909 255.314L482.687 213.471C483.013 213.471 483.315 213.471 483.594 213.471C483.919 213.471 484.245 213.471 484.57 213.471L487.36 257.336C487.499 259.01 487.918 260.172 488.615 260.823C489.359 261.428 490.08 261.753 490.777 261.8L490.498 263.194C489.475 263.101 488.173 263.055 486.593 263.055C485.012 263.008 483.501 262.985 482.06 262.985C480.246 262.985 478.526 263.008 476.899 263.055C475.272 263.055 473.97 263.101 472.994 263.194L473.273 261.8C475.504 261.707 477.085 261.311 478.015 260.614C478.945 259.87 479.363 258.313 479.27 255.942L477.457 222.258L478.573 221.351L456.605 252.315ZM462.533 243.11H482.897L482.339 244.504H461.277L462.533 243.11ZM513.044 255.802C512.626 257.476 512.463 258.731 512.556 259.568C512.696 260.405 513.137 260.963 513.881 261.242C514.671 261.521 515.857 261.707 517.438 261.8L517.089 263.194C516.345 263.148 515.439 263.125 514.369 263.125C513.3 263.078 512.161 263.055 510.952 263.055C509.743 263.008 508.534 262.985 507.326 262.985C505.373 262.985 503.513 263.008 501.747 263.055C500.026 263.055 498.608 263.101 497.492 263.194L497.841 261.8C499.422 261.707 500.654 261.521 501.537 261.242C502.421 260.963 503.118 260.405 503.629 259.568C504.141 258.731 504.606 257.476 505.024 255.802L509.836 236.694L512.974 241.087L516.113 239.762L518.484 234.183L513.044 255.802ZM536.477 214.238C535.733 214.284 535.035 214.447 534.384 214.726C533.733 215.005 533.106 215.377 532.501 215.842C531.06 216.864 529.363 218.585 527.41 221.002C525.458 223.373 523.435 226.488 521.343 230.347C519.297 234.16 517.322 238.832 515.415 244.365L509.488 244.714C509.302 242.575 509.046 240.274 508.72 237.809C508.441 235.299 508.07 232.835 507.605 230.417C507.186 227.999 506.651 225.791 506.001 223.792C505.396 221.746 504.676 220.119 503.839 218.91C503.002 217.701 502.025 217.097 500.91 217.097C500.119 217.097 499.445 217.376 498.887 217.934C498.376 218.445 497.957 219.259 497.632 220.375L495.819 225.675C495.819 225.675 495.563 225.675 495.052 225.675C494.54 225.675 494.284 225.675 494.284 225.675L496.446 219.398C497.19 217.12 498.143 215.47 499.306 214.447C500.514 213.378 502.165 212.843 504.257 212.843C507 212.843 509.162 213.866 510.743 215.911C512.324 217.911 513.532 220.793 514.369 224.559C515.206 228.325 515.904 232.788 516.461 237.949C518.182 233.486 520.111 229.534 522.25 226.093C524.388 222.606 526.62 219.677 528.945 217.306C530.014 216.19 531.269 215.167 532.711 214.238C534.152 213.308 535.64 212.843 537.174 212.843C538.941 212.843 540.196 213.331 540.94 214.307C541.684 215.284 542.032 216.4 541.986 217.655C541.939 218.817 541.498 219.956 540.661 221.072C539.824 222.141 538.638 222.676 537.104 222.676C535.895 222.676 535.012 222.327 534.454 221.63C533.943 220.933 533.71 220.142 533.757 219.259C533.803 218.236 534.129 217.306 534.733 216.469C535.337 215.586 536.081 214.889 536.965 214.377C536.918 214.331 536.848 214.307 536.755 214.307C536.663 214.261 536.57 214.238 536.477 214.238ZM575.588 213.331C575.123 214.54 574.496 216.307 573.705 218.631C572.915 220.909 572.171 223.885 571.474 227.558H570.079C570.219 226.907 570.311 226.233 570.358 225.535C570.451 224.838 570.497 224.187 570.497 223.583C570.497 221.862 570.126 220.305 569.382 218.91C568.684 217.469 567.615 216.353 566.174 215.563C564.732 214.726 562.849 214.307 560.525 214.307C557.921 214.307 555.713 214.982 553.9 216.33C552.133 217.678 551.249 219.817 551.249 222.746C551.249 224.466 551.668 226.093 552.505 227.628C553.342 229.115 554.388 230.557 555.643 231.951C556.945 233.346 558.34 234.741 559.827 236.136C561.315 237.53 562.71 238.972 564.012 240.46C565.314 241.901 566.383 243.435 567.22 245.062C568.057 246.69 568.475 248.479 568.475 250.432C568.475 252.85 567.894 254.942 566.732 256.709C565.616 258.429 564.151 259.847 562.338 260.963C560.571 262.032 558.619 262.822 556.48 263.334C554.388 263.892 552.319 264.171 550.273 264.171C548.32 264.171 546.67 264.008 545.322 263.683C544.02 263.357 542.927 262.939 542.044 262.427C541.161 261.916 540.37 261.428 539.673 260.963C539.161 260.591 538.673 260.335 538.208 260.196C537.79 260.01 537.441 259.917 537.162 259.917C536.558 259.917 536.046 260.219 535.628 260.823C535.256 261.428 534.814 262.381 534.303 263.683H532.908C533.327 262.66 533.768 261.474 534.233 260.126C534.698 258.778 535.21 257.057 535.767 254.965C536.325 252.827 536.953 250.153 537.65 246.945H539.045C538.813 247.875 538.627 248.805 538.487 249.735C538.394 250.665 538.371 251.594 538.418 252.524C538.557 255.732 539.533 258.243 541.347 260.056C543.206 261.823 546.019 262.706 549.785 262.706C552.853 262.706 555.248 262.032 556.968 260.684C558.735 259.336 559.618 257.267 559.618 254.477C559.618 252.524 559.223 250.781 558.433 249.247C557.689 247.666 556.712 246.201 555.504 244.853C554.341 243.458 553.086 242.11 551.738 240.808C550.389 239.506 549.111 238.158 547.902 236.763C546.74 235.369 545.787 233.834 545.043 232.161C544.299 230.487 543.927 228.627 543.927 226.581C543.927 224.303 544.392 222.304 545.322 220.584C546.252 218.864 547.484 217.446 549.018 216.33C550.552 215.167 552.249 214.307 554.109 213.749C556.015 213.145 557.921 212.843 559.827 212.843C562.059 212.843 563.919 213.122 565.407 213.68C566.941 214.191 568.336 214.912 569.591 215.842C570.102 216.214 570.544 216.516 570.916 216.748C571.334 216.934 571.66 217.027 571.892 217.027C572.543 217.027 573.31 215.795 574.194 213.331H575.588Z" fill="white"/>
<mask id="mask0_108_152" style="mask-type:alpha" maskUnits="userSpaceOnUse" x="193" y="212" width="383" height="54">
<path d="M223.516 264.458V263.005C225.163 262.908 226.398 262.714 227.221 262.424C228.045 262.133 228.578 261.552 228.82 260.68C229.11 259.808 229.256 258.5 229.256 256.757V220.719C229.256 218.927 229.11 217.619 228.82 216.795C228.578 215.923 228.021 215.342 227.149 215.052C226.325 214.713 225.114 214.519 223.516 214.47V213.017C224.727 213.066 226.228 213.114 228.021 213.163C229.861 213.211 231.678 213.235 233.47 213.235C235.504 213.235 237.393 213.211 239.137 213.163C240.881 213.114 242.285 213.066 243.351 213.017V214.47C241.753 214.519 240.542 214.713 239.718 215.052C238.895 215.342 238.338 215.923 238.047 216.795C237.757 217.619 237.611 218.927 237.611 220.719V256.757C237.611 258.5 237.757 259.808 238.047 260.68C238.338 261.552 238.895 262.133 239.718 262.424C240.542 262.714 241.753 262.908 243.351 263.005V264.458C242.285 264.361 240.881 264.313 239.137 264.313C237.393 264.264 235.504 264.24 233.47 264.24C231.678 264.24 229.861 264.264 228.021 264.313C226.228 264.313 224.727 264.361 223.516 264.458ZM193 264.458V263.005C194.647 262.908 195.882 262.714 196.705 262.424C197.529 262.133 198.062 261.552 198.304 260.68C198.595 259.808 198.74 258.5 198.74 256.757V220.719C198.74 218.927 198.595 217.619 198.304 216.795C198.062 215.923 197.505 215.342 196.633 215.052C195.809 214.713 194.598 214.519 193 214.47V213.017C194.114 213.066 195.543 213.114 197.287 213.163C199.079 213.211 200.992 213.235 203.027 213.235C204.867 213.235 206.659 213.211 208.403 213.163C210.195 213.114 211.673 213.066 212.835 213.017V214.47C211.237 214.519 210.026 214.713 209.202 215.052C208.379 215.342 207.822 215.923 207.531 216.795C207.241 217.619 207.095 218.927 207.095 220.719V256.757C207.095 258.5 207.241 259.808 207.531 260.68C207.822 261.552 208.379 262.133 209.202 262.424C210.026 262.714 211.237 262.908 212.835 263.005V264.458C211.673 264.361 210.195 264.313 208.403 264.313C206.659 264.264 204.867 264.24 203.027 264.24C200.992 264.24 199.079 264.264 197.287 264.313C195.543 264.313 194.114 264.361 193 264.458ZM203.826 239.319V237.866H232.525V239.319H203.826Z" fill="white"/>
<path d="M267.29 212C272.037 212 276.203 213.041 279.787 215.124C283.42 217.207 286.23 220.21 288.216 224.134C290.201 228.009 291.194 232.731 291.194 238.302C291.194 243.727 290.177 248.474 288.143 252.542C286.108 256.611 283.275 259.784 279.642 262.061C276.009 264.337 271.868 265.475 267.218 265.475C262.422 265.475 258.233 264.434 254.648 262.351C251.064 260.268 248.279 257.265 246.293 253.342C244.307 249.418 243.314 244.696 243.314 239.174C243.314 233.749 244.331 229.002 246.365 224.933C248.448 220.864 251.282 217.691 254.866 215.415C258.45 213.138 262.592 212 267.29 212ZM267 213.308C263.997 213.308 261.381 214.398 259.153 216.577C256.925 218.757 255.205 221.76 253.994 225.587C252.783 229.413 252.178 233.845 252.178 238.883C252.178 244.017 252.856 248.498 254.212 252.325C255.568 256.103 257.409 259.033 259.734 261.116C262.059 263.15 264.651 264.168 267.508 264.168C270.512 264.168 273.103 263.078 275.283 260.898C277.511 258.718 279.23 255.715 280.441 251.889C281.701 248.014 282.33 243.581 282.33 238.592C282.33 233.41 281.628 228.929 280.223 225.151C278.867 221.373 277.026 218.466 274.701 216.432C272.425 214.349 269.858 213.308 267 213.308Z" fill="white"/>
<path d="M290.309 213.017C291.423 213.066 292.852 213.114 294.596 213.163C296.388 213.211 298.156 213.235 299.9 213.235C302.225 213.235 304.429 213.211 306.511 213.163C308.643 213.114 310.144 213.09 311.016 213.09C317.168 213.09 321.769 214.422 324.821 217.086C327.873 219.75 329.398 223.189 329.398 227.403C329.398 229.147 329.083 230.988 328.454 232.925C327.873 234.814 326.831 236.582 325.33 238.229C323.828 239.828 321.794 241.135 319.226 242.153C316.659 243.17 313.39 243.678 309.418 243.678H302.297V242.225H308.691C311.936 242.225 314.407 241.571 316.102 240.263C317.846 238.956 319.008 237.236 319.59 235.105C320.219 232.974 320.534 230.673 320.534 228.202C320.534 223.601 319.711 220.162 318.064 217.885C316.417 215.609 313.559 214.47 309.49 214.47C307.408 214.47 306.027 214.882 305.349 215.705C304.719 216.529 304.404 218.2 304.404 220.719V256.611C304.404 258.403 304.598 259.76 304.986 260.68C305.373 261.552 306.1 262.133 307.165 262.424C308.231 262.714 309.805 262.884 311.888 262.932V264.458C310.58 264.361 308.885 264.313 306.802 264.313C304.719 264.264 302.564 264.24 300.336 264.24C298.398 264.24 296.533 264.264 294.741 264.313C292.997 264.313 291.52 264.361 290.309 264.458V263.005C291.956 262.908 293.191 262.714 294.014 262.424C294.838 262.133 295.371 261.552 295.613 260.68C295.904 259.808 296.049 258.5 296.049 256.757V220.719C296.049 218.927 295.904 217.619 295.613 216.795C295.371 215.923 294.814 215.342 293.942 215.052C293.118 214.713 291.907 214.519 290.309 214.47V213.017Z" fill="white"/>
<path d="M327.619 213.017C328.733 213.066 330.162 213.114 331.906 213.163C333.698 213.211 335.466 213.235 337.21 213.235C339.535 213.235 341.739 213.211 343.822 213.163C345.953 213.114 347.455 213.09 348.327 213.09C354.478 213.09 359.08 214.422 362.131 217.086C365.183 219.75 366.709 223.189 366.709 227.403C366.709 229.147 366.394 230.988 365.764 232.925C365.183 234.814 364.141 236.582 362.64 238.229C361.138 239.828 359.104 241.135 356.537 242.153C353.97 243.17 350.7 243.678 346.728 243.678H339.608V242.225H346.002C349.247 242.225 351.717 241.571 353.413 240.263C355.156 238.956 356.319 237.236 356.9 235.105C357.53 232.974 357.845 230.673 357.845 228.202C357.845 223.601 357.021 220.162 355.374 217.885C353.727 215.609 350.87 214.47 346.801 214.47C344.718 214.47 343.337 214.882 342.659 215.705C342.03 216.529 341.715 218.2 341.715 220.719V256.611C341.715 258.403 341.909 259.76 342.296 260.68C342.684 261.552 343.41 262.133 344.476 262.424C345.541 262.714 347.116 262.884 349.198 262.932V264.458C347.891 264.361 346.195 264.313 344.112 264.313C342.03 264.264 339.874 264.24 337.646 264.24C335.708 264.24 333.844 264.264 332.051 264.313C330.308 264.313 328.83 264.361 327.619 264.458V263.005C329.266 262.908 330.501 262.714 331.325 262.424C332.148 262.133 332.681 261.552 332.923 260.68C333.214 259.808 333.359 258.5 333.359 256.757V220.719C333.359 218.927 333.214 217.619 332.923 216.795C332.681 215.923 332.124 215.342 331.252 215.052C330.429 214.713 329.218 214.519 327.619 214.47V213.017Z" fill="white"/>
<path d="M406.998 213.017V214.47C406.029 214.713 405.036 215.391 404.019 216.505C403.05 217.57 401.96 219.266 400.749 221.591L386.436 249.999H384.474L367.473 218.612C366.504 216.868 365.681 215.754 365.002 215.27C364.373 214.785 363.791 214.543 363.259 214.543V213.017C364.324 213.066 365.438 213.114 366.601 213.163C367.763 213.211 369.023 213.235 370.379 213.235C372.123 213.235 374.012 213.235 376.046 213.235C378.081 213.187 379.97 213.114 381.713 213.017V214.543C380.502 214.543 379.413 214.664 378.444 214.906C377.524 215.148 376.894 215.633 376.555 216.359C376.264 217.038 376.458 218.031 377.136 219.338L389.124 242.371L387.962 243.606L396.899 225.805C398.4 222.85 399.151 220.573 399.151 218.975C399.199 217.328 398.667 216.19 397.553 215.56C396.487 214.882 394.937 214.519 392.903 214.47V213.017C394.404 213.066 395.882 213.114 397.335 213.163C398.788 213.211 400.168 213.235 401.476 213.235C402.687 213.235 403.728 213.211 404.6 213.163C405.472 213.114 406.271 213.066 406.998 213.017ZM390.287 241.063V256.757C390.287 258.5 390.432 259.808 390.723 260.68C391.014 261.552 391.571 262.133 392.394 262.424C393.217 262.714 394.428 262.908 396.027 263.005V264.458C394.864 264.361 393.387 264.313 391.595 264.313C389.803 264.264 387.986 264.24 386.145 264.24C384.16 264.24 382.27 264.264 380.478 264.313C378.686 264.313 377.257 264.361 376.192 264.458V263.005C377.838 262.908 379.074 262.714 379.897 262.424C380.72 262.133 381.253 261.552 381.495 260.68C381.786 259.808 381.931 258.5 381.931 256.757V241.862L386.654 246.367L390.287 241.063Z" fill="white"/>
<path d="M457.863 229.65C457.863 232.997 457.375 236.298 456.398 239.553C455.422 242.807 453.958 245.853 452.005 248.689C450.099 251.525 447.774 254.035 445.031 256.221C442.334 258.359 439.243 260.056 435.756 261.311C432.315 262.567 428.526 263.194 424.388 263.194C423.691 263.194 422.761 263.171 421.599 263.125C420.483 263.078 419.297 263.055 418.042 263.055C416.787 263.008 415.555 262.985 414.346 262.985C413.277 262.985 412.161 263.008 410.998 263.055C409.883 263.055 408.813 263.078 407.79 263.125C406.814 263.125 405.977 263.148 405.28 263.194L405.489 261.8C406.977 261.707 408.139 261.521 408.976 261.242C409.859 260.963 410.557 260.405 411.068 259.568C411.58 258.731 412.044 257.476 412.463 255.802L421.599 221.212C422.017 219.724 422.226 218.561 422.226 217.725C422.226 216.841 421.878 216.214 421.18 215.842C420.483 215.47 419.274 215.26 417.554 215.214L417.763 213.819C418.507 213.866 419.39 213.912 420.413 213.959C421.482 214.005 422.622 214.028 423.83 214.028C425.039 214.028 426.178 214.028 427.248 214.028C428.27 213.982 429.433 213.959 430.735 213.959C432.036 213.912 433.315 213.889 434.57 213.889C435.825 213.842 436.895 213.819 437.778 213.819C444.427 213.819 449.425 215.167 452.772 217.864C456.166 220.514 457.863 224.443 457.863 229.65ZM423.83 261.939C427.224 261.939 430.27 261.335 432.966 260.126C435.709 258.871 438.127 257.15 440.219 254.965C442.311 252.734 444.055 250.176 445.449 247.294C446.844 244.411 447.89 241.32 448.588 238.019C449.285 234.671 449.634 231.254 449.634 227.767C449.634 223.583 448.564 220.421 446.426 218.282C444.287 216.144 440.8 215.075 435.965 215.075C434.617 215.075 433.571 215.237 432.827 215.563C432.083 215.888 431.478 216.469 431.013 217.306C430.549 218.143 430.084 219.398 429.619 221.072L420.483 255.942C420.111 257.336 419.902 258.499 419.855 259.429C419.809 260.312 420.064 260.963 420.622 261.381C421.227 261.753 422.296 261.939 423.83 261.939ZM456.605 252.315C454.978 254.593 454.048 256.43 453.815 257.825C453.583 259.173 453.932 260.172 454.861 260.823C455.791 261.428 457.209 261.753 459.116 261.8L458.767 263.194C457.233 263.101 455.768 263.055 454.373 263.055C452.979 263.008 451.653 262.985 450.398 262.985C449.282 262.985 448.353 263.008 447.609 263.055C446.818 263.055 446.051 263.101 445.307 263.194L445.656 261.8C446.353 261.614 447.074 261.288 447.818 260.823C448.515 260.358 449.306 259.684 450.189 258.801C451.026 257.917 451.932 256.755 452.909 255.314L482.687 213.471C483.013 213.471 483.315 213.471 483.594 213.471C483.919 213.471 484.245 213.471 484.57 213.471L487.36 257.336C487.499 259.01 487.918 260.172 488.615 260.823C489.359 261.428 490.08 261.753 490.777 261.8L490.498 263.194C489.475 263.101 488.173 263.055 486.593 263.055C485.012 263.008 483.501 262.985 482.06 262.985C480.246 262.985 478.526 263.008 476.899 263.055C475.272 263.055 473.97 263.101 472.994 263.194L473.273 261.8C475.504 261.707 477.085 261.311 478.015 260.614C478.945 259.87 479.363 258.313 479.27 255.942L477.457 222.258L478.573 221.351L456.605 252.315ZM462.533 243.11H482.897L482.339 244.504H461.277L462.533 243.11ZM513.044 255.802C512.626 257.476 512.463 258.731 512.556 259.568C512.696 260.405 513.137 260.963 513.881 261.242C514.671 261.521 515.857 261.707 517.438 261.8L517.089 263.194C516.345 263.148 515.439 263.125 514.369 263.125C513.3 263.078 512.161 263.055 510.952 263.055C509.743 263.008 508.534 262.985 507.326 262.985C505.373 262.985 503.513 263.008 501.747 263.055C500.026 263.055 498.608 263.101 497.492 263.194L497.841 261.8C499.422 261.707 500.654 261.521 501.537 261.242C502.421 260.963 503.118 260.405 503.629 259.568C504.141 258.731 504.606 257.476 505.024 255.802L509.836 236.694L512.974 241.087L516.113 239.762L518.484 234.183L513.044 255.802ZM536.477 214.238C535.733 214.284 535.035 214.447 534.384 214.726C533.733 215.005 533.106 215.377 532.501 215.842C531.06 216.864 529.363 218.585 527.41 221.002C525.458 223.373 523.435 226.488 521.343 230.347C519.297 234.16 517.322 238.832 515.415 244.365L509.488 244.714C509.302 242.575 509.046 240.274 508.72 237.809C508.441 235.299 508.07 232.835 507.605 230.417C507.186 227.999 506.651 225.791 506.001 223.792C505.396 221.746 504.676 220.119 503.839 218.91C503.002 217.701 502.025 217.097 500.91 217.097C500.119 217.097 499.445 217.376 498.887 217.934C498.376 218.445 497.957 219.259 497.632 220.375L495.819 225.675C495.819 225.675 495.563 225.675 495.052 225.675C494.54 225.675 494.284 225.675 494.284 225.675L496.446 219.398C497.19 217.12 498.143 215.47 499.306 214.447C500.514 213.378 502.165 212.843 504.257 212.843C507 212.843 509.162 213.866 510.743 215.911C512.324 217.911 513.532 220.793 514.369 224.559C515.206 228.325 515.904 232.788 516.461 237.949C518.182 233.486 520.111 229.534 522.25 226.093C524.388 222.606 526.62 219.677 528.945 217.306C530.014 216.19 531.269 215.167 532.711 214.238C534.152 213.308 535.64 212.843 537.174 212.843C538.941 212.843 540.196 213.331 540.94 214.307C541.684 215.284 542.032 216.4 541.986 217.655C541.939 218.817 541.498 219.956 540.661 221.072C539.824 222.141 538.638 222.676 537.104 222.676C535.895 222.676 535.012 222.327 534.454 221.63C533.943 220.933 533.71 220.142 533.757 219.259C533.803 218.236 534.129 217.306 534.733 216.469C535.337 215.586 536.081 214.889 536.965 214.377C536.918 214.331 536.848 214.307 536.755 214.307C536.663 214.261 536.57 214.238 536.477 214.238ZM575.588 213.331C575.123 214.54 574.496 216.307 573.705 218.631C572.915 220.909 572.171 223.885 571.474 227.558H570.079C570.219 226.907 570.311 226.233 570.358 225.535C570.451 224.838 570.497 224.187 570.497 223.583C570.497 221.862 570.126 220.305 569.382 218.91C568.684 217.469 567.615 216.353 566.174 215.563C564.732 214.726 562.849 214.307 560.525 214.307C557.921 214.307 555.713 214.982 553.9 216.33C552.133 217.678 551.249 219.817 551.249 222.746C551.249 224.466 551.668 226.093 552.505 227.628C553.342 229.115 554.388 230.557 555.643 231.951C556.945 233.346 558.34 234.741 559.827 236.136C561.315 237.53 562.71 238.972 564.012 240.46C565.314 241.901 566.383 243.435 567.22 245.062C568.057 246.69 568.475 248.479 568.475 250.432C568.475 252.85 567.894 254.942 566.732 256.709C565.616 258.429 564.151 259.847 562.338 260.963C560.571 262.032 558.619 262.822 556.48 263.334C554.388 263.892 552.319 264.171 550.273 264.171C548.32 264.171 546.67 264.008 545.322 263.683C544.02 263.357 542.927 262.939 542.044 262.427C541.161 261.916 540.37 261.428 539.673 260.963C539.161 260.591 538.673 260.335 538.208 260.196C537.79 260.01 537.441 259.917 537.162 259.917C536.558 259.917 536.046 260.219 535.628 260.823C535.256 261.428 534.814 262.381 534.303 263.683H532.908C533.327 262.66 533.768 261.474 534.233 260.126C534.698 258.778 535.21 257.057 535.767 254.965C536.325 252.827 536.953 250.153 537.65 246.945H539.045C538.813 247.875 538.627 248.805 538.487 249.735C538.394 250.665 538.371 251.594 538.418 252.524C538.557 255.732 539.533 258.243 541.347 260.056C543.206 261.823 546.019 262.706 549.785 262.706C552.853 262.706 555.248 262.032 556.968 260.684C558.735 259.336 559.618 257.267 559.618 254.477C559.618 252.524 559.223 250.781 558.433 249.247C557.689 247.666 556.712 246.201 555.504 244.853C554.341 243.458 553.086 242.11 551.738 240.808C550.389 239.506 549.111 238.158 547.902 236.763C546.74 235.369 545.787 233.834 545.043 232.161C544.299 230.487 543.927 228.627 543.927 226.581C543.927 224.303 544.392 222.304 545.322 220.584C546.252 218.864 547.484 217.446 549.018 216.33C550.552 215.167 552.249 214.307 554.109 213.749C556.015 213.145 557.921 212.843 559.827 212.843C562.059 212.843 563.919 213.122 565.407 213.68C566.941 214.191 568.336 214.912 569.591 215.842C570.102 216.214 570.544 216.516 570.916 216.748C571.334 216.934 571.66 217.027 571.892 217.027C572.543 217.027 573.31 215.795 574.194 213.331H575.588Z" fill="white"/>
</mask>
<g mask="url(#mask0_108_152)">
<path d="M89.003 163.119C47.5051 150.878 11.6591 140.304 -16.3286 134.864V507.718H980.474V99.8597C945.586 104.022 916.64 120.357 875.142 135.512C768.843 174.334 625.458 226.701 482.073 231.736C338.688 236.771 195.303 194.475 89.003 163.119Z" fill="url(#paint0_radial_108_152)" fill-opacity="0.3"/>
<path d="M875.142 195.403C916.64 184.309 938.11 176.158 980.474 169.795V507.718H-16.3286V138.07C21.8821 143.282 47.505 156.647 89.0027 170.383C195.302 205.568 338.687 253.028 482.073 257.592C625.458 262.155 768.843 223.822 875.142 195.403Z" fill="url(#paint1_radial_108_152)"/>
</g>
<path d="M339.414 289.444V307H337.854L327.481 292.298H327.344V307H325.741V289.444H327.292L337.699 304.163H337.836V289.444H339.414ZM350.813 307.274C349.676 307.274 348.67 306.986 347.796 306.409C346.927 305.831 346.247 305.034 345.756 304.017C345.264 302.994 345.018 301.814 345.018 300.476C345.018 299.128 345.264 297.942 345.756 296.919C346.247 295.89 346.927 295.09 347.796 294.519C348.67 293.941 349.676 293.653 350.813 293.653C351.951 293.653 352.954 293.941 353.822 294.519C354.691 295.096 355.371 295.896 355.862 296.919C356.36 297.942 356.608 299.128 356.608 300.476C356.608 301.814 356.363 302.994 355.871 304.017C355.38 305.034 354.697 305.831 353.822 306.409C352.954 306.986 351.951 307.274 350.813 307.274ZM350.813 305.877C351.728 305.877 352.502 305.631 353.136 305.14C353.771 304.648 354.251 303.994 354.577 303.177C354.908 302.359 355.074 301.459 355.074 300.476C355.074 299.493 354.908 298.59 354.577 297.767C354.251 296.945 353.771 296.284 353.136 295.787C352.502 295.29 351.728 295.041 350.813 295.041C349.905 295.041 349.13 295.29 348.49 295.787C347.856 296.284 347.373 296.945 347.041 297.767C346.716 298.59 346.553 299.493 346.553 300.476C346.553 301.459 346.716 302.359 347.041 303.177C347.373 303.994 347.856 304.648 348.49 305.14C349.125 305.631 349.899 305.877 350.813 305.877ZM370.627 307V293.833H372.161V307H370.627ZM371.407 291.57C371.093 291.57 370.824 291.464 370.601 291.252C370.378 291.035 370.267 290.775 370.267 290.472C370.267 290.169 370.378 289.912 370.601 289.701C370.824 289.484 371.093 289.375 371.407 289.375C371.721 289.375 371.99 289.484 372.213 289.701C372.436 289.912 372.547 290.169 372.547 290.472C372.547 290.775 372.436 291.035 372.213 291.252C371.99 291.464 371.721 291.57 371.407 291.57ZM378.128 307V293.833H379.611V295.856H379.748C380.011 295.176 380.448 294.641 381.06 294.253C381.677 293.858 382.417 293.661 383.28 293.661C384.189 293.661 384.935 293.876 385.517 294.304C386.106 294.727 386.546 295.31 386.838 296.053H386.949C387.246 295.321 387.729 294.741 388.398 294.313C389.072 293.878 389.889 293.661 390.85 293.661C392.073 293.661 393.038 294.047 393.747 294.819C394.456 295.584 394.81 296.704 394.81 298.179V307H393.284V298.179C393.284 297.139 393.018 296.359 392.487 295.839C391.955 295.319 391.255 295.059 390.387 295.059C389.381 295.059 388.606 295.367 388.063 295.984C387.521 296.602 387.249 297.385 387.249 298.333V307H385.689V298.042C385.689 297.15 385.44 296.43 384.943 295.882C384.446 295.333 383.746 295.059 382.843 295.059C382.237 295.059 381.691 295.207 381.206 295.504C380.725 295.802 380.345 296.216 380.065 296.747C379.791 297.273 379.654 297.879 379.654 298.565V307H378.128ZM404.459 307.3C403.664 307.3 402.938 307.146 402.281 306.837C401.624 306.523 401.101 306.071 400.712 305.483C400.324 304.888 400.129 304.168 400.129 303.322C400.129 302.671 400.252 302.122 400.498 301.677C400.744 301.231 401.092 300.865 401.544 300.579C401.995 300.293 402.53 300.068 403.147 299.902C403.764 299.736 404.444 299.608 405.187 299.516C405.924 299.425 406.547 299.345 407.056 299.276C407.57 299.208 407.962 299.099 408.23 298.95C408.499 298.802 408.633 298.562 408.633 298.23V297.922C408.633 297.025 408.365 296.319 407.827 295.804C407.296 295.284 406.53 295.024 405.53 295.024C404.581 295.024 403.807 295.233 403.207 295.65C402.613 296.067 402.195 296.559 401.955 297.125L400.507 296.602C400.804 295.882 401.215 295.307 401.741 294.879C402.267 294.444 402.855 294.133 403.507 293.944C404.158 293.75 404.819 293.653 405.487 293.653C405.99 293.653 406.513 293.718 407.056 293.85C407.605 293.981 408.113 294.21 408.582 294.536C409.05 294.856 409.431 295.304 409.722 295.882C410.013 296.453 410.159 297.179 410.159 298.059V307H408.633V304.917H408.539C408.356 305.306 408.085 305.683 407.725 306.048C407.365 306.414 406.913 306.714 406.37 306.949C405.827 307.183 405.19 307.3 404.459 307.3ZM404.664 305.903C405.476 305.903 406.179 305.723 406.773 305.363C407.367 305.003 407.825 304.525 408.145 303.931C408.47 303.331 408.633 302.671 408.633 301.951V300.048C408.519 300.156 408.328 300.253 408.059 300.339C407.796 300.425 407.49 300.502 407.142 300.571C406.799 300.634 406.456 300.688 406.113 300.734C405.77 300.779 405.461 300.819 405.187 300.854C404.444 300.945 403.81 301.088 403.284 301.282C402.758 301.476 402.355 301.745 402.075 302.088C401.795 302.425 401.655 302.86 401.655 303.391C401.655 304.191 401.941 304.811 402.513 305.251C403.084 305.686 403.801 305.903 404.664 305.903ZM421.173 312.212C420.276 312.212 419.49 312.095 418.815 311.861C418.141 311.632 417.572 311.318 417.11 310.918C416.647 310.518 416.287 310.069 416.029 309.572L417.281 308.749C417.47 309.08 417.721 309.406 418.035 309.726C418.355 310.046 418.77 310.312 419.278 310.523C419.793 310.735 420.424 310.84 421.173 310.84C422.339 310.84 423.279 310.549 423.993 309.966C424.713 309.383 425.073 308.477 425.073 307.249V304.283H424.936C424.759 304.683 424.505 305.083 424.173 305.483C423.842 305.877 423.407 306.206 422.87 306.469C422.339 306.731 421.679 306.863 420.89 306.863C419.838 306.863 418.904 306.603 418.087 306.083C417.275 305.563 416.635 304.82 416.167 303.854C415.704 302.882 415.472 301.725 415.472 300.382C415.472 299.05 415.698 297.879 416.149 296.867C416.607 295.856 417.244 295.067 418.061 294.501C418.878 293.936 419.83 293.653 420.916 293.653C421.722 293.653 422.39 293.796 422.922 294.081C423.453 294.361 423.879 294.71 424.199 295.127C424.525 295.544 424.779 295.95 424.962 296.344H425.116V293.833H426.608V307.343C426.608 308.457 426.371 309.375 425.896 310.095C425.422 310.815 424.776 311.346 423.959 311.689C423.142 312.038 422.213 312.212 421.173 312.212ZM421.07 305.466C421.916 305.466 422.639 305.263 423.239 304.857C423.839 304.445 424.299 303.857 424.619 303.091C424.939 302.325 425.099 301.414 425.099 300.356C425.099 299.328 424.942 298.416 424.628 297.622C424.313 296.822 423.856 296.193 423.256 295.736C422.662 295.273 421.933 295.041 421.07 295.041C420.19 295.041 419.447 295.279 418.841 295.753C418.235 296.227 417.778 296.867 417.47 297.673C417.161 298.473 417.007 299.368 417.007 300.356C417.007 301.362 417.164 302.251 417.478 303.022C417.792 303.788 418.253 304.388 418.858 304.823C419.464 305.251 420.201 305.466 421.07 305.466ZM437.902 307.274C436.674 307.274 435.611 306.989 434.713 306.417C433.816 305.84 433.122 305.043 432.63 304.025C432.144 303.002 431.902 301.825 431.902 300.494C431.902 299.168 432.144 297.99 432.63 296.962C433.122 295.927 433.799 295.119 434.662 294.536C435.531 293.947 436.534 293.653 437.671 293.653C438.385 293.653 439.074 293.784 439.737 294.047C440.4 294.304 440.994 294.701 441.52 295.239C442.051 295.77 442.471 296.442 442.78 297.253C443.089 298.059 443.243 299.013 443.243 300.116V300.871H432.956V299.525H441.683C441.683 298.679 441.511 297.919 441.168 297.245C440.831 296.564 440.36 296.027 439.754 295.633C439.154 295.239 438.459 295.041 437.671 295.041C436.836 295.041 436.102 295.264 435.468 295.71C434.833 296.156 434.336 296.745 433.976 297.476C433.622 298.208 433.442 299.008 433.436 299.876V300.682C433.436 301.728 433.616 302.642 433.976 303.425C434.342 304.203 434.859 304.805 435.528 305.234C436.196 305.663 436.988 305.877 437.902 305.877C438.525 305.877 439.071 305.78 439.54 305.586C440.014 305.391 440.411 305.131 440.731 304.805C441.057 304.474 441.303 304.111 441.468 303.717L442.917 304.188C442.717 304.743 442.389 305.254 441.931 305.723C441.48 306.191 440.914 306.569 440.234 306.854C439.56 307.134 438.782 307.274 437.902 307.274Z" fill="white"/>
<defs>
<radialGradient id="paint0_radial_108_152" cx="0" cy="0" r="1" gradientUnits="userSpaceOnUse" gradientTransform="translate(482.073 99.8598) rotate(90) scale(407.858 540.204)">
<stop stop-color="#FFE349"/>
<stop offset="1" stop-color="#FFE349"/>
</radialGradient>
<radialGradient id="paint1_radial_108_152" cx="0" cy="0" r="1" gradientUnits="userSpaceOnUse" gradientTransform="translate(482.073 138.071) rotate(90) scale(369.648 540.204)">
<stop stop-color="#FFE349"/>
<stop offset="1" stop-color="#FFE349"/>
</radialGradient>
</defs>
</svg>
