<svg preserveAspectRatio="none" width="1538" height="210" viewBox="0 0 1538 210" fill="none" xmlns="http://www.w3.org/2000/svg">
<path d="M124.078 204.316V198.379C130.806 197.984 135.852 197.192 139.216 196.005C142.779 194.817 145.153 192.443 146.341 188.881C147.528 185.319 148.122 179.976 148.122 172.852V25.6204C148.122 18.2984 147.528 12.9554 146.341 9.59125C145.153 6.02921 142.779 3.65451 139.216 2.46717C135.852 1.08193 130.806 0.290359 124.078 0.0924692V-5.84425C128.629 -5.64636 134.368 -5.44849 141.294 -5.2506C148.221 -5.05271 155.048 -4.95375 161.776 -4.95375C169.494 -4.95375 176.717 -5.05271 183.445 -5.2506C190.173 -5.44849 195.615 -5.64636 199.771 -5.84425V0.0924692C193.043 0.290359 187.898 1.08193 184.336 2.46717C180.972 3.65451 178.696 6.02921 177.508 9.59125C176.321 12.9554 175.727 18.2984 175.727 25.6204V172.852C175.727 179.976 176.321 185.319 177.508 188.881C178.696 192.443 180.972 194.817 184.336 196.005C187.898 197.192 193.043 197.984 199.771 198.379V204.316C195.615 203.92 190.173 203.723 183.445 203.723C176.717 203.525 169.494 203.426 161.776 203.426C155.048 203.426 148.221 203.525 141.294 203.723C134.368 203.723 128.629 203.92 124.078 204.316ZM0 204.316V198.379C6.7283 197.984 11.7745 197.192 15.1387 196.005C18.7007 194.817 21.0754 192.443 22.2628 188.881C23.4501 185.319 24.0438 179.976 24.0438 172.852V25.6204C24.0438 18.2984 23.4501 12.9554 22.2628 9.59125C21.0754 6.02921 18.7007 3.65451 15.1387 2.46717C11.7745 1.08193 6.7283 0.290359 0 0.0924692V-5.84425C4.15571 -5.64636 9.59772 -5.44849 16.326 -5.2506C23.0543 -5.05271 30.2774 -4.95375 37.9951 -4.95375C44.9213 -4.95375 51.7486 -5.05271 58.4768 -5.2506C65.403 -5.44849 71.1419 -5.64636 75.6934 -5.84425V0.0924692C68.9651 0.290359 63.8199 1.08193 60.2579 2.46717C56.8937 3.65451 54.618 6.02921 53.4306 9.59125C52.2433 12.9554 51.6496 18.2984 51.6496 25.6204V172.852C51.6496 179.976 52.2433 185.319 53.4306 188.881C54.618 192.443 56.8937 194.817 60.2579 196.005C63.8199 197.192 68.9651 197.984 75.6934 198.379V204.316C71.1419 203.92 65.403 203.723 58.4768 203.723C51.7486 203.525 44.9213 203.426 37.9951 203.426C30.2774 203.426 23.0543 203.525 16.326 203.723C9.59772 203.723 4.15571 203.92 0 204.316ZM41.2603 101.611V95.6739H158.511V101.611H41.2603Z" fill="#FFE349"/>
<path d="M295.887 -10C314.687 -10 331.112 -5.74534 345.162 2.76399C359.41 11.2733 370.393 23.5426 378.111 39.5718C386.027 55.4031 389.985 74.6974 389.985 97.4549C389.985 119.619 385.928 139.012 377.814 155.635C369.899 172.258 358.817 185.22 344.569 194.521C330.32 203.821 313.994 208.472 295.59 208.472C276.791 208.472 260.267 204.217 246.019 195.708C231.968 187.199 220.985 174.929 213.07 158.9C205.352 142.871 201.493 123.577 201.493 101.017C201.493 78.8532 205.55 59.4598 213.663 42.837C221.777 26.2141 232.859 13.2522 246.909 3.95135C261.157 -5.34954 277.483 -10 295.887 -10ZM294.7 -4.65693C281.837 -4.65693 270.656 -0.204373 261.157 8.70073C251.659 17.6058 244.238 29.8751 238.895 45.5085C233.749 61.1419 231.177 79.249 231.177 99.8296C231.177 120.806 234.046 139.111 239.785 154.744C245.722 170.18 253.638 182.152 263.532 190.662C273.625 198.973 284.706 203.129 296.778 203.129C309.641 203.129 320.822 198.676 330.32 189.771C339.819 180.866 347.141 168.597 352.286 152.963C357.629 137.132 360.301 119.025 360.301 98.6423C360.301 77.4679 357.333 59.163 351.396 43.7275C345.657 28.292 337.84 16.4185 327.946 8.10706C318.051 -0.402267 306.969 -4.65693 294.7 -4.65693Z" fill="#FFE349"/>
<path d="M391.531 -5.84425C395.687 -5.64636 401.129 -5.44849 407.857 -5.2506C414.586 -5.05271 421.215 -4.95375 427.745 -4.95375C437.046 -4.95375 445.951 -5.05271 454.461 -5.2506C462.97 -5.44849 469.006 -5.54742 472.568 -5.54742C496.513 -5.54742 514.422 -0.105408 526.295 10.7786C538.169 21.6626 544.105 35.7129 544.105 52.9294C544.105 60.0535 542.918 67.5734 540.543 75.489C538.169 83.2068 534.013 90.4298 528.076 97.1581C522.337 103.689 514.422 109.032 504.329 113.187C494.237 117.343 481.473 119.421 466.037 119.421H437.541V113.484H463.069C477.119 113.484 487.805 110.813 495.127 105.47C502.647 100.126 507.693 93.1013 510.266 84.3941C513.037 75.6869 514.422 66.2871 514.422 56.1946C514.422 37.395 510.662 23.3447 503.142 14.0438C495.82 4.74292 483.155 0.0924692 465.147 0.0924692C456.044 0.0924692 450.107 1.77454 447.337 5.13869C444.566 8.50284 443.181 15.3301 443.181 25.6204V172.852C443.181 179.976 443.874 185.319 445.259 188.881C446.842 192.443 449.81 194.817 454.164 196.005C458.517 197.192 464.85 197.984 473.161 198.379V204.316C468.016 203.92 461.486 203.723 453.57 203.723C445.655 203.525 437.64 203.426 429.526 203.426C421.809 203.426 414.586 203.525 407.857 203.723C401.129 203.723 395.687 203.92 391.531 204.316V198.379C398.26 197.984 403.306 197.192 406.67 196.005C410.232 194.817 412.607 192.443 413.794 188.881C414.981 185.319 415.575 179.976 415.575 172.852V25.6204C415.575 18.2984 414.981 12.9554 413.794 9.59125C412.607 6.02921 410.232 3.65451 406.67 2.46717C403.306 1.08193 398.26 0.290359 391.531 0.0924692V-5.84425Z" fill="#FFE349"/>
<path d="M544.391 -5.84425C548.546 -5.64636 553.988 -5.44849 560.717 -5.2506C567.445 -5.05271 574.074 -4.95375 580.605 -4.95375C589.906 -4.95375 598.811 -5.05271 607.32 -5.2506C615.829 -5.44849 621.865 -5.54742 625.427 -5.54742C649.372 -5.54742 667.281 -0.105408 679.155 10.7786C691.028 21.6626 696.965 35.7129 696.965 52.9294C696.965 60.0535 695.777 67.5734 693.403 75.489C691.028 83.2068 686.872 90.4298 680.936 97.1581C675.197 103.689 667.281 109.032 657.189 113.187C647.096 117.343 634.332 119.421 618.897 119.421H590.4V113.484H615.928C629.979 113.484 640.665 110.813 647.987 105.47C655.507 100.126 660.553 93.1013 663.125 84.3941C665.896 75.6869 667.281 66.2871 667.281 56.1946C667.281 37.395 663.521 23.3447 656.001 14.0438C648.679 4.74292 636.014 0.0924692 618.006 0.0924692C608.903 0.0924692 602.966 1.77454 600.196 5.13869C597.426 8.50284 596.04 15.3301 596.04 25.6204V172.852C596.04 179.976 596.733 185.319 598.118 188.881C599.701 192.443 602.67 194.817 607.023 196.005C611.377 197.192 617.709 197.984 626.021 198.379V204.316C620.876 203.92 614.345 203.723 606.43 203.723C598.514 203.525 590.499 203.426 582.386 203.426C574.668 203.426 567.445 203.525 560.717 203.723C553.988 203.723 548.546 203.92 544.391 204.316V198.379C551.119 197.984 556.165 197.192 559.529 196.005C563.091 194.817 565.466 192.443 566.654 188.881C567.841 185.319 568.435 179.976 568.435 172.852V25.6204C568.435 18.2984 567.841 12.9554 566.654 9.59125C565.466 6.02921 563.091 3.65451 559.529 2.46717C556.165 1.08193 551.119 0.290359 544.391 0.0924692V-5.84425Z" fill="#FFE349"/>
<path d="M865.26 -5.84425V0.0924692C861.5 0.884036 857.74 3.35766 853.98 7.51337C850.22 11.4712 846.064 17.8037 841.513 26.5109L781.552 145.246H776.505L707.046 17.0122C703.088 9.69018 699.724 5.13869 696.953 3.35766C694.381 1.37875 692.006 0.389295 689.829 0.389295V-5.84425C693.787 -5.64636 697.844 -5.44849 701.999 -5.2506C706.353 -5.05271 711.003 -4.95375 715.951 -4.95375C722.481 -4.95375 729.407 -4.95375 736.729 -4.95375C744.249 -5.15164 751.175 -5.44847 757.508 -5.84425V0.389295C752.561 0.389295 748.207 0.982981 744.447 2.17032C740.687 3.35768 738.213 5.53448 737.026 8.70073C735.839 11.867 736.729 16.3196 739.698 22.0584L789.863 118.234L787.488 120.015L826.968 41.3528C832.509 30.4688 835.18 22.0584 834.982 16.1217C834.982 10.1849 832.707 6.12815 828.155 3.95135C823.604 1.57666 817.172 0.290359 808.861 0.0924692V-5.84425C814.599 -5.64636 820.437 -5.44849 826.374 -5.2506C832.311 -5.05271 837.852 -4.95375 842.997 -4.95375C848.142 -4.95375 852.397 -5.05271 855.761 -5.2506C859.125 -5.44849 862.291 -5.64636 865.26 -5.84425ZM794.909 114.078V172.852C794.909 179.976 795.503 185.319 796.69 188.881C797.878 192.443 800.153 194.817 803.518 196.005C807.08 197.192 812.225 197.984 818.953 198.379V204.316C814.402 203.92 808.663 203.723 801.737 203.723C795.008 203.525 788.181 203.426 781.255 203.426C773.537 203.426 766.314 203.525 759.586 203.723C752.857 203.723 747.415 203.92 743.26 204.316V198.379C749.988 197.984 755.034 197.192 758.398 196.005C761.96 194.817 764.335 192.443 765.522 188.881C766.71 185.319 767.303 179.976 767.303 172.852V112L783.333 130.404L794.909 114.078Z" fill="#FFE349"/>
<mask id="path-2-outside-1_8_280" maskUnits="userSpaceOnUse" x="840.569" y="-11" width="697" height="221" fill="black">
<rect fill="white" x="840.569" y="-11" width="697" height="221"/>
<path d="M1059.45 59.7567C1059.45 74.5985 1057.17 89.1435 1052.62 103.392C1048.27 117.442 1041.83 130.602 1033.33 142.871C1025.01 154.942 1015.02 165.628 1003.34 174.929C991.867 184.032 979.004 191.255 964.756 196.598C950.508 201.744 935.171 204.316 918.746 204.316C915.778 204.316 911.82 204.217 906.873 204.019C901.926 203.821 896.78 203.723 891.437 203.723C886.292 203.525 881.543 203.426 877.189 203.426C872.638 203.426 868.086 203.525 863.535 203.723C858.983 203.723 854.828 203.821 851.068 204.019C847.308 204.019 844.141 204.118 841.569 204.316L842.459 198.379C848.792 197.984 853.739 197.192 857.301 196.005C861.061 194.817 864.029 192.443 866.206 188.881C868.383 185.319 870.362 179.976 872.143 172.852L911.029 25.6204C912.81 19.09 913.7 14.0438 913.7 10.4817C913.7 6.72181 912.216 4.14923 909.248 2.76399C906.279 1.18086 901.134 0.290359 893.812 0.0924692L894.703 -5.84425C897.473 -5.64636 900.837 -5.44849 904.795 -5.2506C908.753 -5.05271 913.008 -4.95375 917.559 -4.95375C922.111 -4.95375 926.563 -4.95375 930.917 -4.95375C935.468 -5.15164 940.514 -5.2506 946.055 -5.2506C951.596 -5.44849 956.939 -5.54742 962.085 -5.54742C967.428 -5.74531 971.979 -5.84425 975.739 -5.84425C1003.84 -5.84425 1024.82 -0.20436 1038.67 11.0754C1052.52 22.1573 1059.45 38.3844 1059.45 59.7567ZM915.184 198.973C930.422 198.973 944.175 196.401 956.445 191.255C968.714 186.11 979.499 178.887 988.8 169.586C998.101 160.285 1005.82 149.5 1011.95 137.231C1018.29 124.962 1023.04 111.604 1026.2 97.1581C1029.37 82.712 1030.95 67.7713 1030.95 52.3357C1030.95 34.7234 1026 21.5637 1016.11 12.8564C1006.21 3.95134 989.987 -0.501221 967.428 -0.501221C961.491 -0.501221 956.742 0.19141 953.179 1.57665C949.617 2.96189 946.748 5.53448 944.571 9.29442C942.394 12.8565 940.416 18.1006 938.634 25.0268L899.749 173.445C898.166 179.184 897.275 184.032 897.077 187.99C896.879 191.75 898.067 194.521 900.639 196.302C903.41 198.083 908.258 198.973 915.184 198.973Z"/>
<path d="M1062.6 156.229C1055.27 166.519 1050.82 174.731 1049.24 180.866C1047.85 187.001 1049.04 191.453 1052.8 194.224C1056.56 196.796 1062.5 198.182 1070.61 198.379L1069.13 204.316C1063.59 203.92 1057.85 203.723 1051.91 203.723C1045.97 203.525 1040.43 203.426 1035.29 203.426C1030.34 203.426 1026.18 203.525 1022.82 203.723C1019.46 203.723 1016.19 203.92 1013.02 204.316L1014.51 198.379C1017.28 197.786 1020.15 196.598 1023.12 194.817C1026.09 192.839 1029.35 190.068 1032.91 186.506C1036.47 182.944 1040.23 178.294 1044.19 172.555L1172.13 -7.32845C1172.92 -7.32845 1173.61 -7.32845 1174.21 -7.32845C1175 -7.32845 1175.79 -7.32845 1176.58 -7.32845L1188.46 179.382C1189.05 186.506 1190.83 191.453 1193.8 194.224C1196.96 196.796 1200.03 198.182 1203 198.379L1201.81 204.316C1197.85 203.92 1192.91 203.723 1186.97 203.723C1181.03 203.525 1175.2 203.426 1169.46 203.426C1162.33 203.426 1155.61 203.525 1149.27 203.723C1142.94 203.723 1137.79 203.92 1133.84 204.316L1135.02 198.379C1144.52 197.984 1151.25 196.302 1155.21 193.333C1159.17 190.167 1160.95 183.538 1160.55 173.445L1152.54 26.8078L1154.62 26.2141L1062.6 156.229ZM1086.34 118.827H1173.02L1170.64 124.764H1081L1086.34 118.827Z"/>
<path d="M1280.74 172.852C1278.96 179.976 1278.17 185.319 1278.37 188.881C1278.76 192.443 1280.45 194.817 1283.42 196.005C1286.58 197.192 1291.53 197.984 1298.26 198.379L1296.77 204.316C1293.8 204.118 1290.34 204.019 1286.38 204.019C1282.43 203.821 1278.17 203.723 1273.62 203.723C1269.07 203.525 1264.52 203.426 1259.96 203.426C1252.25 203.426 1244.93 203.525 1238 203.723C1231.07 203.723 1225.43 203.92 1221.08 204.316L1222.56 198.379C1229.29 197.984 1234.54 197.192 1238.3 196.005C1242.06 194.817 1245.02 192.443 1247.2 188.881C1249.38 185.319 1251.36 179.976 1253.14 172.852L1273.62 91.5182L1284.01 110.219L1293.8 104.579L1303.9 80.8321L1280.74 172.852ZM1382.26 -3.76642C1379.1 -3.56853 1376.13 -2.8759 1373.36 -1.68854C1370.78 -0.501197 1368.31 0.982973 1365.94 2.76399C1359.41 7.51338 1351.89 14.9343 1343.38 25.0268C1334.87 34.9213 1326.06 47.9821 1316.96 64.2092C1307.85 80.4363 1298.95 100.423 1290.24 124.17L1272.73 125.654C1271.94 116.551 1270.85 106.657 1269.46 95.9708C1268.28 85.2846 1266.79 74.6975 1265.01 64.2092C1263.23 53.721 1260.95 44.1233 1258.18 35.4161C1255.61 26.511 1252.45 19.4858 1248.69 14.3406C1245.12 8.99756 1240.87 6.32603 1235.92 6.32603C1232.56 6.32603 1229.69 7.41444 1227.31 9.59125C1225.14 11.5702 1223.26 15.1322 1221.67 20.2774L1213.36 44.618C1213.36 44.618 1212.27 44.618 1210.1 44.618C1207.92 44.618 1206.83 44.618 1206.83 44.618L1216.63 15.8248C1219.6 7.11761 1223.06 0.686151 1227.02 -3.46957C1230.97 -7.82318 1237.21 -10 1245.72 -10C1256.6 -10 1265.21 -5.54744 1271.54 3.35766C1277.87 12.0649 1282.82 24.532 1286.38 40.7591C1289.95 56.7883 1292.91 75.6869 1295.29 97.4549C1302.81 78.4574 1311.32 61.6366 1320.82 46.9927C1330.51 32.1508 1340.51 19.5848 1350.8 9.29442C1355.35 4.74293 1360.69 0.389305 1366.83 -3.76642C1373.16 -7.92214 1379.49 -10 1385.82 -10C1392.55 -10 1397.1 -8.12003 1399.48 -4.36009C1401.85 -0.798054 1402.84 3.15976 1402.45 7.51337C1402.25 11.4712 1400.67 15.6269 1397.7 19.9805C1394.93 24.3341 1390.67 26.5109 1384.93 26.5109C1380.38 26.5109 1377.31 25.2247 1375.73 22.6521C1374.15 19.8816 1373.46 16.9132 1373.65 13.747C1373.85 10.5807 1374.84 7.51339 1376.62 4.54502C1378.4 1.37877 1380.58 -1.39172 1383.15 -3.76642C1382.95 -3.76642 1382.76 -3.76642 1382.56 -3.76642C1382.56 -3.76642 1382.46 -3.76642 1382.26 -3.76642Z"/>
<path d="M1536 -7.92212C1534.02 -2.77695 1531.35 4.74292 1527.99 14.6375C1524.82 24.3341 1521.65 36.9992 1518.49 52.6326H1512.55C1513.14 49.8621 1513.54 46.9927 1513.74 44.0243C1514.13 41.056 1514.33 38.2855 1514.33 35.7129C1514.33 28.3909 1512.85 21.7616 1509.88 15.8248C1507.11 9.69019 1502.66 4.84187 1496.52 1.27983C1490.39 -2.4801 1482.27 -4.36009 1472.18 -4.36009C1460.31 -4.36009 1450.41 -1.29277 1442.5 4.84185C1434.58 10.9765 1430.62 20.4753 1430.62 33.3382C1430.62 40.8581 1432.4 47.8832 1435.97 54.4136C1439.73 60.7461 1444.38 66.8808 1449.92 72.8175C1455.66 78.5563 1461.69 84.3941 1468.02 90.3309C1474.55 96.0697 1480.59 102.006 1486.13 108.141C1491.87 114.276 1496.52 120.806 1500.08 127.732C1503.84 134.461 1505.72 141.98 1505.72 150.292C1505.72 160.582 1503.45 169.388 1498.9 176.71C1494.34 184.032 1488.41 190.068 1481.09 194.817C1473.76 199.369 1465.65 202.733 1456.74 204.91C1448.04 207.285 1439.33 208.472 1430.62 208.472C1422.71 208.472 1416.08 207.68 1410.73 206.097C1405.39 204.712 1400.94 202.931 1397.38 200.754C1393.82 198.577 1390.85 196.598 1388.47 194.817C1386.3 193.036 1384.22 191.849 1382.24 191.255C1380.46 190.662 1378.97 190.365 1377.79 190.365C1375.21 190.365 1373.04 191.75 1371.26 194.521C1369.67 197.093 1367.79 201.051 1365.62 206.394H1359.68C1361.46 202.04 1363.34 196.994 1365.32 191.255C1367.3 185.517 1369.47 178.195 1371.85 169.289C1374.22 160.186 1376.9 148.808 1379.86 135.153H1385.8C1385.01 139.309 1384.32 143.366 1383.72 147.324C1383.13 151.083 1382.93 155.041 1383.13 159.197C1383.72 172.654 1387.88 183.241 1395.6 190.959C1403.31 198.676 1415.29 202.535 1431.51 202.535C1444.38 202.535 1454.86 199.567 1462.98 193.63C1471.09 187.693 1475.15 178.294 1475.15 165.431C1475.15 157.119 1473.47 149.698 1470.1 143.168C1466.94 136.637 1462.68 130.602 1457.34 125.061C1452.19 119.322 1446.65 113.781 1440.72 108.438C1434.98 103.095 1429.44 97.5539 1424.09 91.815C1418.95 85.8783 1414.69 79.3479 1411.33 72.2238C1408.16 65.0997 1406.58 56.9862 1406.58 47.8832C1406.58 38.3844 1408.46 30.073 1412.22 22.9489C1415.98 15.6269 1420.93 9.59125 1427.06 4.84185C1433.39 -0.105427 1440.42 -3.76642 1448.14 -6.14112C1455.85 -8.7137 1463.77 -10 1471.88 -10C1480.19 -10 1487.32 -9.01053 1493.26 -7.03161C1499.19 -5.0527 1504.93 -1.88644 1510.47 2.46717C1512.85 4.24819 1514.83 5.63342 1516.41 6.62288C1517.99 7.41443 1519.28 7.81022 1520.27 7.81022C1523.04 7.81022 1526.3 2.5661 1530.06 -7.92212H1536Z"/>
</mask>
<path d="M1059.45 59.7567C1059.45 74.5985 1057.17 89.1435 1052.62 103.392C1048.27 117.442 1041.83 130.602 1033.33 142.871C1025.01 154.942 1015.02 165.628 1003.34 174.929C991.867 184.032 979.004 191.255 964.756 196.598C950.508 201.744 935.171 204.316 918.746 204.316C915.778 204.316 911.82 204.217 906.873 204.019C901.926 203.821 896.78 203.723 891.437 203.723C886.292 203.525 881.543 203.426 877.189 203.426C872.638 203.426 868.086 203.525 863.535 203.723C858.983 203.723 854.828 203.821 851.068 204.019C847.308 204.019 844.141 204.118 841.569 204.316L842.459 198.379C848.792 197.984 853.739 197.192 857.301 196.005C861.061 194.817 864.029 192.443 866.206 188.881C868.383 185.319 870.362 179.976 872.143 172.852L911.029 25.6204C912.81 19.09 913.7 14.0438 913.7 10.4817C913.7 6.72181 912.216 4.14923 909.248 2.76399C906.279 1.18086 901.134 0.290359 893.812 0.0924692L894.703 -5.84425C897.473 -5.64636 900.837 -5.44849 904.795 -5.2506C908.753 -5.05271 913.008 -4.95375 917.559 -4.95375C922.111 -4.95375 926.563 -4.95375 930.917 -4.95375C935.468 -5.15164 940.514 -5.2506 946.055 -5.2506C951.596 -5.44849 956.939 -5.54742 962.085 -5.54742C967.428 -5.74531 971.979 -5.84425 975.739 -5.84425C1003.84 -5.84425 1024.82 -0.20436 1038.67 11.0754C1052.52 22.1573 1059.45 38.3844 1059.45 59.7567ZM915.184 198.973C930.422 198.973 944.175 196.401 956.445 191.255C968.714 186.11 979.499 178.887 988.8 169.586C998.101 160.285 1005.82 149.5 1011.95 137.231C1018.29 124.962 1023.04 111.604 1026.2 97.1581C1029.37 82.712 1030.95 67.7713 1030.95 52.3357C1030.95 34.7234 1026 21.5637 1016.11 12.8564C1006.21 3.95134 989.987 -0.501221 967.428 -0.501221C961.491 -0.501221 956.742 0.19141 953.179 1.57665C949.617 2.96189 946.748 5.53448 944.571 9.29442C942.394 12.8565 940.416 18.1006 938.634 25.0268L899.749 173.445C898.166 179.184 897.275 184.032 897.077 187.99C896.879 191.75 898.067 194.521 900.639 196.302C903.41 198.083 908.258 198.973 915.184 198.973Z" stroke="#FFE349" stroke-width="1.5" mask="url(#path-2-outside-1_8_280)"/>
<path d="M1062.6 156.229C1055.27 166.519 1050.82 174.731 1049.24 180.866C1047.85 187.001 1049.04 191.453 1052.8 194.224C1056.56 196.796 1062.5 198.182 1070.61 198.379L1069.13 204.316C1063.59 203.92 1057.85 203.723 1051.91 203.723C1045.97 203.525 1040.43 203.426 1035.29 203.426C1030.34 203.426 1026.18 203.525 1022.82 203.723C1019.46 203.723 1016.19 203.92 1013.02 204.316L1014.51 198.379C1017.28 197.786 1020.15 196.598 1023.12 194.817C1026.09 192.839 1029.35 190.068 1032.91 186.506C1036.47 182.944 1040.23 178.294 1044.19 172.555L1172.13 -7.32845C1172.92 -7.32845 1173.61 -7.32845 1174.21 -7.32845C1175 -7.32845 1175.79 -7.32845 1176.58 -7.32845L1188.46 179.382C1189.05 186.506 1190.83 191.453 1193.8 194.224C1196.96 196.796 1200.03 198.182 1203 198.379L1201.81 204.316C1197.85 203.92 1192.91 203.723 1186.97 203.723C1181.03 203.525 1175.2 203.426 1169.46 203.426C1162.33 203.426 1155.61 203.525 1149.27 203.723C1142.94 203.723 1137.79 203.92 1133.84 204.316L1135.02 198.379C1144.52 197.984 1151.25 196.302 1155.21 193.333C1159.17 190.167 1160.95 183.538 1160.55 173.445L1152.54 26.8078L1154.62 26.2141L1062.6 156.229ZM1086.34 118.827H1173.02L1170.64 124.764H1081L1086.34 118.827Z" stroke="#FFE349" stroke-width="1.5" mask="url(#path-2-outside-1_8_280)"/>
<path d="M1280.74 172.852C1278.96 179.976 1278.17 185.319 1278.37 188.881C1278.76 192.443 1280.45 194.817 1283.42 196.005C1286.58 197.192 1291.53 197.984 1298.26 198.379L1296.77 204.316C1293.8 204.118 1290.34 204.019 1286.38 204.019C1282.43 203.821 1278.17 203.723 1273.62 203.723C1269.07 203.525 1264.52 203.426 1259.96 203.426C1252.25 203.426 1244.93 203.525 1238 203.723C1231.07 203.723 1225.43 203.92 1221.08 204.316L1222.56 198.379C1229.29 197.984 1234.54 197.192 1238.3 196.005C1242.06 194.817 1245.02 192.443 1247.2 188.881C1249.38 185.319 1251.36 179.976 1253.14 172.852L1273.62 91.5182L1284.01 110.219L1293.8 104.579L1303.9 80.8321L1280.74 172.852ZM1382.26 -3.76642C1379.1 -3.56853 1376.13 -2.8759 1373.36 -1.68854C1370.78 -0.501197 1368.31 0.982973 1365.94 2.76399C1359.41 7.51338 1351.89 14.9343 1343.38 25.0268C1334.87 34.9213 1326.06 47.9821 1316.96 64.2092C1307.85 80.4363 1298.95 100.423 1290.24 124.17L1272.73 125.654C1271.94 116.551 1270.85 106.657 1269.46 95.9708C1268.28 85.2846 1266.79 74.6975 1265.01 64.2092C1263.23 53.721 1260.95 44.1233 1258.18 35.4161C1255.61 26.511 1252.45 19.4858 1248.69 14.3406C1245.12 8.99756 1240.87 6.32603 1235.92 6.32603C1232.56 6.32603 1229.69 7.41444 1227.31 9.59125C1225.14 11.5702 1223.26 15.1322 1221.67 20.2774L1213.36 44.618C1213.36 44.618 1212.27 44.618 1210.1 44.618C1207.92 44.618 1206.83 44.618 1206.83 44.618L1216.63 15.8248C1219.6 7.11761 1223.06 0.686151 1227.02 -3.46957C1230.97 -7.82318 1237.21 -10 1245.72 -10C1256.6 -10 1265.21 -5.54744 1271.54 3.35766C1277.87 12.0649 1282.82 24.532 1286.38 40.7591C1289.95 56.7883 1292.91 75.6869 1295.29 97.4549C1302.81 78.4574 1311.32 61.6366 1320.82 46.9927C1330.51 32.1508 1340.51 19.5848 1350.8 9.29442C1355.35 4.74293 1360.69 0.389305 1366.83 -3.76642C1373.16 -7.92214 1379.49 -10 1385.82 -10C1392.55 -10 1397.1 -8.12003 1399.48 -4.36009C1401.85 -0.798054 1402.84 3.15976 1402.45 7.51337C1402.25 11.4712 1400.67 15.6269 1397.7 19.9805C1394.93 24.3341 1390.67 26.5109 1384.93 26.5109C1380.38 26.5109 1377.31 25.2247 1375.73 22.6521C1374.15 19.8816 1373.46 16.9132 1373.65 13.747C1373.85 10.5807 1374.84 7.51339 1376.62 4.54502C1378.4 1.37877 1380.58 -1.39172 1383.15 -3.76642C1382.95 -3.76642 1382.76 -3.76642 1382.56 -3.76642C1382.56 -3.76642 1382.46 -3.76642 1382.26 -3.76642Z" stroke="#FFE349" stroke-width="1.5" mask="url(#path-2-outside-1_8_280)"/>
<path d="M1536 -7.92212C1534.02 -2.77695 1531.35 4.74292 1527.99 14.6375C1524.82 24.3341 1521.65 36.9992 1518.49 52.6326H1512.55C1513.14 49.8621 1513.54 46.9927 1513.74 44.0243C1514.13 41.056 1514.33 38.2855 1514.33 35.7129C1514.33 28.3909 1512.85 21.7616 1509.88 15.8248C1507.11 9.69019 1502.66 4.84187 1496.52 1.27983C1490.39 -2.4801 1482.27 -4.36009 1472.18 -4.36009C1460.31 -4.36009 1450.41 -1.29277 1442.5 4.84185C1434.58 10.9765 1430.62 20.4753 1430.62 33.3382C1430.62 40.8581 1432.4 47.8832 1435.97 54.4136C1439.73 60.7461 1444.38 66.8808 1449.92 72.8175C1455.66 78.5563 1461.69 84.3941 1468.02 90.3309C1474.55 96.0697 1480.59 102.006 1486.13 108.141C1491.87 114.276 1496.52 120.806 1500.08 127.732C1503.84 134.461 1505.72 141.98 1505.72 150.292C1505.72 160.582 1503.45 169.388 1498.9 176.71C1494.34 184.032 1488.41 190.068 1481.09 194.817C1473.76 199.369 1465.65 202.733 1456.74 204.91C1448.04 207.285 1439.33 208.472 1430.62 208.472C1422.71 208.472 1416.08 207.68 1410.73 206.097C1405.39 204.712 1400.94 202.931 1397.38 200.754C1393.82 198.577 1390.85 196.598 1388.47 194.817C1386.3 193.036 1384.22 191.849 1382.24 191.255C1380.46 190.662 1378.97 190.365 1377.79 190.365C1375.21 190.365 1373.04 191.75 1371.26 194.521C1369.67 197.093 1367.79 201.051 1365.62 206.394H1359.68C1361.46 202.04 1363.34 196.994 1365.32 191.255C1367.3 185.517 1369.47 178.195 1371.85 169.289C1374.22 160.186 1376.9 148.808 1379.86 135.153H1385.8C1385.01 139.309 1384.32 143.366 1383.72 147.324C1383.13 151.083 1382.93 155.041 1383.13 159.197C1383.72 172.654 1387.88 183.241 1395.6 190.959C1403.31 198.676 1415.29 202.535 1431.51 202.535C1444.38 202.535 1454.86 199.567 1462.98 193.63C1471.09 187.693 1475.15 178.294 1475.15 165.431C1475.15 157.119 1473.47 149.698 1470.1 143.168C1466.94 136.637 1462.68 130.602 1457.34 125.061C1452.19 119.322 1446.65 113.781 1440.72 108.438C1434.98 103.095 1429.44 97.5539 1424.09 91.815C1418.95 85.8783 1414.69 79.3479 1411.33 72.2238C1408.16 65.0997 1406.58 56.9862 1406.58 47.8832C1406.58 38.3844 1408.46 30.073 1412.22 22.9489C1415.98 15.6269 1420.93 9.59125 1427.06 4.84185C1433.39 -0.105427 1440.42 -3.76642 1448.14 -6.14112C1455.85 -8.7137 1463.77 -10 1471.88 -10C1480.19 -10 1487.32 -9.01053 1493.26 -7.03161C1499.19 -5.0527 1504.93 -1.88644 1510.47 2.46717C1512.85 4.24819 1514.83 5.63342 1516.41 6.62288C1517.99 7.41443 1519.28 7.81022 1520.27 7.81022C1523.04 7.81022 1526.3 2.5661 1530.06 -7.92212H1536Z" stroke="#FFE349" stroke-width="1.5" mask="url(#path-2-outside-1_8_280)"/>
</svg>
