<svg preserveAspectRatio="none" width="80" height="20" viewBox="0 0 80 20" fill="none" xmlns="http://www.w3.org/2000/svg">
<g clip-path="url(#clip0_26_11)">
<path d="M26.7081 0.215088L21.8352 19.0951H16.3231L13.3408 6.6698L10.2519 19.0951H4.73983L0 0.215088H4.87298L7.56243 13.9583L10.891 0.215088H15.8971L19.0924 13.9583L21.8086 0.215088H26.7081Z" fill="white"/>
<path d="M33.5451 0.215088V19.0951L28.9917 17.5378V1.77237L33.5451 0.215088Z" fill="white"/>
<path d="M36.0728 9.62828C36.0728 7.76359 36.4722 6.10508 37.2711 4.65277C38.0699 3.18253 39.1794 2.04399 40.5995 1.23716C42.0375 0.412385 43.6619 0 45.4725 0C47.6915 0 49.5911 0.591682 51.171 1.77505C52.751 2.95841 53.8072 4.57209 54.3398 6.61608H49.3336C48.9609 5.82717 48.4283 5.22652 47.736 4.81415C47.0613 4.40176 46.2892 4.19557 45.4193 4.19557C44.0169 4.19557 42.8808 4.68863 42.0109 5.67477C41.141 6.6609 40.7061 7.97875 40.7061 9.62828C40.7061 11.2778 41.141 12.5957 42.0109 13.5818C42.8808 14.5679 44.0169 15.061 45.4193 15.061C46.2892 15.061 47.0613 14.8548 47.736 14.4425C48.4283 14.03 48.9609 13.4293 49.3336 12.6404H54.3398C53.8072 14.6845 52.751 16.2981 51.171 17.4816C49.5911 18.6469 47.6915 19.2297 45.4725 19.2297C43.6619 19.2297 42.0375 18.8262 40.5995 18.0195C39.1794 17.1947 38.0699 16.0561 37.2711 14.6038C36.4722 13.1514 36.0728 11.493 36.0728 9.62828Z" fill="white"/>
<path d="M64.1314 0.215088C66.1019 0.215088 67.8239 0.609542 69.2973 1.39845C70.7707 2.18736 71.907 3.29901 72.7057 4.73338C73.5224 6.14983 73.9306 7.79041 73.9306 9.65511C73.9306 11.5018 73.5224 13.1425 72.7057 14.5768C71.907 16.0111 70.7618 17.1228 69.2707 17.9117C67.7973 18.7007 66.0842 19.0951 64.1314 19.0951H57.1282V0.215088H64.1314ZM63.8385 15.1147C65.5605 15.1147 66.9008 14.6396 67.8594 13.6893C68.8181 12.739 69.2973 11.3943 69.2973 9.65511C69.2973 7.91592 68.8181 6.56222 67.8594 5.59401C66.9008 4.62581 65.5605 4.1417 63.8385 4.1417H61.6816V15.1147H63.8385Z" fill="#4BC9C7"/>
<path d="M77.3106 19.3103C76.5117 19.3103 75.8549 19.0772 75.3401 18.6111C74.843 18.127 74.5945 17.5353 74.5945 16.836C74.5945 16.1189 74.843 15.5182 75.3401 15.0341C75.8549 14.55 76.5117 14.3079 77.3106 14.3079C78.0917 14.3079 78.7307 14.55 79.2278 15.0341C79.7426 15.5182 80 16.1189 80 16.836C80 17.5353 79.7426 18.127 79.2278 18.6111C78.7307 19.0772 78.0917 19.3103 77.3106 19.3103Z" fill="white"/>
</g>
<defs>
<clipPath id="clip0_26_11">
<rect width="80" height="20" fill="white"/>
</clipPath>
</defs>
</svg>
