<svg preserveAspectRatio="none" width="214" height="31" viewBox="0 0 214 31" fill="none" xmlns="http://www.w3.org/2000/svg">
<path d="M16.8 30.1129V29.3129C17.7067 29.2596 18.3867 29.1529 18.84 28.9929C19.2933 28.8329 19.5867 28.5129 19.72 28.0329C19.88 27.5529 19.96 26.8329 19.96 25.8729V6.03291C19.96 5.04624 19.88 4.32624 19.72 3.87291C19.5867 3.39291 19.28 3.07291 18.8 2.91291C18.3467 2.72624 17.68 2.61958 16.8 2.59291V1.79291C17.4667 1.81958 18.2933 1.84625 19.28 1.87291C20.2933 1.89958 21.2933 1.91291 22.28 1.91291C23.4 1.91291 24.44 1.89958 25.4 1.87291C26.36 1.84625 27.1333 1.81958 27.72 1.79291V2.59291C26.84 2.61958 26.1733 2.72624 25.72 2.91291C25.2667 3.07291 24.96 3.39291 24.8 3.87291C24.64 4.32624 24.56 5.04624 24.56 6.03291V25.8729C24.56 26.8329 24.64 27.5529 24.8 28.0329C24.96 28.5129 25.2667 28.8329 25.72 28.9929C26.1733 29.1529 26.84 29.2596 27.72 29.3129V30.1129C27.1333 30.0596 26.36 30.0329 25.4 30.0329C24.44 30.0062 23.4 29.9929 22.28 29.9929C21.2933 29.9929 20.2933 30.0062 19.28 30.0329C18.2933 30.0329 17.4667 30.0596 16.8 30.1129ZM0 30.1129V29.3129C0.906667 29.2596 1.58667 29.1529 2.04 28.9929C2.49333 28.8329 2.78667 28.5129 2.92 28.0329C3.08 27.5529 3.16 26.8329 3.16 25.8729V6.03291C3.16 5.04624 3.08 4.32624 2.92 3.87291C2.78667 3.39291 2.48 3.07291 2 2.91291C1.54667 2.72624 0.88 2.61958 0 2.59291V1.79291C0.613333 1.81958 1.4 1.84625 2.36 1.87291C3.34667 1.89958 4.4 1.91291 5.52 1.91291C6.53333 1.91291 7.52 1.89958 8.48 1.87291C9.46667 1.84625 10.28 1.81958 10.92 1.79291V2.59291C10.04 2.61958 9.37333 2.72624 8.92 2.91291C8.46667 3.07291 8.16 3.39291 8 3.87291C7.84 4.32624 7.76 5.04624 7.76 6.03291V25.8729C7.76 26.8329 7.84 27.5529 8 28.0329C8.16 28.5129 8.46667 28.8329 8.92 28.9929C9.37333 29.1529 10.04 29.2596 10.92 29.3129V30.1129C10.28 30.0596 9.46667 30.0329 8.48 30.0329C7.52 30.0062 6.53333 29.9929 5.52 29.9929C4.4 29.9929 3.34667 30.0062 2.36 30.0329C1.4 30.0329 0.613333 30.0596 0 30.1129ZM5.96 16.2729V15.4729H21.76V16.2729H5.96Z" fill="#222222"/>
<path d="M40.8994 1.23291C43.5127 1.23291 45.806 1.80624 47.7794 2.95291C49.7794 4.09958 51.326 5.75291 52.4194 7.91291C53.5127 10.0462 54.0594 12.6462 54.0594 15.7129C54.0594 18.6996 53.4994 21.3129 52.3794 23.5529C51.2594 25.7929 49.6994 27.5396 47.6994 28.7929C45.6994 30.0462 43.4194 30.6729 40.8594 30.6729C38.2194 30.6729 35.9127 30.0996 33.9394 28.9529C31.966 27.8062 30.4327 26.1529 29.3394 23.9929C28.246 21.8329 27.6994 19.2329 27.6994 16.1929C27.6994 13.2062 28.2594 10.5929 29.3794 8.35291C30.526 6.11291 32.086 4.36625 34.0594 3.11291C36.0327 1.85958 38.3127 1.23291 40.8994 1.23291ZM40.7394 1.95291C39.086 1.95291 37.646 2.55291 36.4194 3.75291C35.1927 4.95291 34.246 6.60625 33.5794 8.71291C32.9127 10.8196 32.5794 13.2596 32.5794 16.0329C32.5794 18.8596 32.9527 21.3262 33.6994 23.4329C34.446 25.5129 35.4594 27.1262 36.7394 28.2729C38.0194 29.3929 39.446 29.9529 41.0194 29.9529C42.6727 29.9529 44.0994 29.3529 45.2994 28.1529C46.526 26.9529 47.4727 25.2996 48.1394 23.1929C48.8327 21.0596 49.1794 18.6196 49.1794 15.8729C49.1794 13.0196 48.7927 10.5529 48.0194 8.47291C47.2727 6.39291 46.2594 4.79291 44.9794 3.67291C43.726 2.52624 42.3127 1.95291 40.7394 1.95291Z" fill="#222222"/>
<path d="M53.5719 1.79291C54.1852 1.81958 54.9719 1.84625 55.9319 1.87291C56.9185 1.89958 57.8919 1.91291 58.8519 1.91291C60.1319 1.91291 61.3452 1.89958 62.4919 1.87291C63.6652 1.84625 64.4919 1.83291 64.9719 1.83291C68.3585 1.83291 70.8919 2.56625 72.5719 4.03291C74.2519 5.49958 75.0919 7.39291 75.0919 9.71291C75.0919 10.6729 74.9185 11.6862 74.5719 12.7529C74.2519 13.7929 73.6785 14.7662 72.8519 15.6729C72.0252 16.5529 70.9052 17.2729 69.4919 17.8329C68.0785 18.3929 66.2785 18.6729 64.0919 18.6729H60.1719V17.8729H63.6919C65.4785 17.8729 66.8385 17.5129 67.7719 16.7929C68.7319 16.0729 69.3719 15.1262 69.6919 13.9529C70.0385 12.7796 70.2119 11.5129 70.2119 10.1529C70.2119 7.61958 69.7585 5.72624 68.8519 4.47291C67.9452 3.21958 66.3719 2.59291 64.1319 2.59291C62.9852 2.59291 62.2252 2.81958 61.8519 3.27291C61.5052 3.72624 61.3319 4.64624 61.3319 6.03291V25.7929C61.3319 26.7796 61.4385 27.5262 61.6519 28.0329C61.8652 28.5129 62.2652 28.8329 62.8519 28.9929C63.4385 29.1529 64.3052 29.2462 65.4519 29.2729V30.1129C64.7319 30.0596 63.7985 30.0329 62.6519 30.0329C61.5052 30.0062 60.3185 29.9929 59.0919 29.9929C58.0252 29.9929 56.9985 30.0062 56.0119 30.0329C55.0519 30.0329 54.2385 30.0596 53.5719 30.1129V29.3129C54.4785 29.2596 55.1585 29.1529 55.6119 28.9929C56.0652 28.8329 56.3585 28.5129 56.4919 28.0329C56.6519 27.5529 56.7319 26.8329 56.7319 25.8729V6.03291C56.7319 5.04624 56.6519 4.32624 56.4919 3.87291C56.3585 3.39291 56.0519 3.07291 55.5719 2.91291C55.1185 2.72624 54.4519 2.61958 53.5719 2.59291V1.79291Z" fill="#222222"/>
<path d="M74.1125 1.79291C74.7258 1.81958 75.5125 1.84625 76.4725 1.87291C77.4592 1.89958 78.4325 1.91291 79.3925 1.91291C80.6725 1.91291 81.8858 1.89958 83.0325 1.87291C84.2058 1.84625 85.0325 1.83291 85.5125 1.83291C88.8992 1.83291 91.4325 2.56625 93.1125 4.03291C94.7925 5.49958 95.6325 7.39291 95.6325 9.71291C95.6325 10.6729 95.4592 11.6862 95.1125 12.7529C94.7925 13.7929 94.2192 14.7662 93.3925 15.6729C92.5658 16.5529 91.4458 17.2729 90.0325 17.8329C88.6192 18.3929 86.8192 18.6729 84.6325 18.6729H80.7125V17.8729H84.2325C86.0192 17.8729 87.3792 17.5129 88.3125 16.7929C89.2725 16.0729 89.9125 15.1262 90.2325 13.9529C90.5792 12.7796 90.7525 11.5129 90.7525 10.1529C90.7525 7.61958 90.2992 5.72624 89.3925 4.47291C88.4858 3.21958 86.9125 2.59291 84.6725 2.59291C83.5258 2.59291 82.7658 2.81958 82.3925 3.27291C82.0458 3.72624 81.8725 4.64624 81.8725 6.03291V25.7929C81.8725 26.7796 81.9792 27.5262 82.1925 28.0329C82.4058 28.5129 82.8058 28.8329 83.3925 28.9929C83.9792 29.1529 84.8458 29.2462 85.9925 29.2729V30.1129C85.2725 30.0596 84.3392 30.0329 83.1925 30.0329C82.0458 30.0062 80.8592 29.9929 79.6325 29.9929C78.5658 29.9929 77.5392 30.0062 76.5525 30.0329C75.5925 30.0329 74.7792 30.0596 74.1125 30.1129V29.3129C75.0192 29.2596 75.6992 29.1529 76.1525 28.9929C76.6058 28.8329 76.8992 28.5129 77.0325 28.0329C77.1925 27.5529 77.2725 26.8329 77.2725 25.8729V6.03291C77.2725 5.04624 77.1925 4.32624 77.0325 3.87291C76.8992 3.39291 76.5925 3.07291 76.1125 2.91291C75.6592 2.72624 74.9925 2.61958 74.1125 2.59291V1.79291Z" fill="#222222"/>
<path d="M117.813 1.79291V2.59291C117.28 2.72624 116.733 3.09958 116.173 3.71291C115.64 4.29958 115.04 5.23291 114.373 6.51291L106.493 22.1529H105.413L96.0531 4.87291C95.5198 3.91291 95.0665 3.29958 94.6931 3.03291C94.3465 2.76624 94.0265 2.63291 93.7331 2.63291V1.79291C94.3198 1.81958 94.9331 1.84625 95.5731 1.87291C96.2131 1.89958 96.9065 1.91291 97.6531 1.91291C98.6131 1.91291 99.6531 1.91291 100.773 1.91291C101.893 1.88624 102.933 1.84625 103.893 1.79291V2.63291C103.226 2.63291 102.626 2.69958 102.093 2.83291C101.586 2.96624 101.24 3.23291 101.053 3.63291C100.893 4.00625 101 4.55291 101.373 5.27291L107.973 17.9529L107.333 18.6329L112.253 8.83291C113.08 7.20624 113.493 5.95291 113.493 5.07291C113.52 4.16624 113.226 3.53958 112.613 3.19291C112.026 2.81958 111.173 2.61958 110.053 2.59291V1.79291C110.88 1.81958 111.693 1.84625 112.493 1.87291C113.293 1.89958 114.053 1.91291 114.773 1.91291C115.44 1.91291 116.013 1.89958 116.493 1.87291C116.973 1.84625 117.413 1.81958 117.813 1.79291ZM108.613 17.2329V25.8729C108.613 26.8329 108.693 27.5529 108.853 28.0329C109.013 28.5129 109.32 28.8329 109.773 28.9929C110.226 29.1529 110.893 29.2596 111.773 29.3129V30.1129C111.133 30.0596 110.32 30.0329 109.333 30.0329C108.346 30.0062 107.346 29.9929 106.333 29.9929C105.24 29.9929 104.2 30.0062 103.213 30.0329C102.226 30.0329 101.44 30.0596 100.853 30.1129V29.3129C101.76 29.2596 102.44 29.1529 102.893 28.9929C103.346 28.8329 103.64 28.5129 103.773 28.0329C103.933 27.5529 104.013 26.8329 104.013 25.8729V17.6729L106.613 20.1529L108.613 17.2329Z" fill="#222222"/>
<mask id="path-2-outside-1_16_230" maskUnits="userSpaceOnUse" x="115.868" y="0.697021" width="98" height="31" fill="black">
<rect fill="white" x="115.868" y="0.697021" width="98" height="31"/>
<path d="M145.817 10.9499C145.817 12.7928 145.548 14.6101 145.01 16.4018C144.473 18.1935 143.666 19.87 142.591 21.4314C141.542 22.9927 140.262 24.3749 138.752 25.5779C137.268 26.7553 135.565 27.6895 133.646 28.3806C131.752 29.0717 129.666 29.4173 127.388 29.4173C127.004 29.4173 126.492 29.4045 125.852 29.3789C125.237 29.3533 124.585 29.3405 123.894 29.3405C123.203 29.3149 122.524 29.3021 121.859 29.3021C121.27 29.3021 120.656 29.3149 120.016 29.3405C119.402 29.3405 118.813 29.3533 118.25 29.3789C117.712 29.3789 117.252 29.3917 116.868 29.4173L116.983 28.6494C117.802 28.5982 118.442 28.4958 118.903 28.3422C119.389 28.1887 119.773 27.8815 120.054 27.4208C120.336 26.9601 120.592 26.269 120.822 25.3475L125.852 6.30426C126.082 5.4852 126.197 4.8453 126.197 4.38458C126.197 3.89826 126.005 3.55272 125.621 3.34795C125.237 3.14318 124.572 3.028 123.625 3.00241L123.74 2.23454C124.15 2.26013 124.636 2.28573 125.199 2.31132C125.788 2.33692 126.415 2.34971 127.08 2.34971C127.746 2.34971 128.373 2.34971 128.962 2.34971C129.525 2.32412 130.165 2.31132 130.881 2.31132C131.598 2.28573 132.302 2.27293 132.993 2.27293C133.684 2.24733 134.273 2.23454 134.759 2.23454C138.419 2.23454 141.171 2.97681 143.014 4.46137C144.882 5.92033 145.817 8.08317 145.817 10.9499ZM127.08 28.7262C128.949 28.7262 130.625 28.3934 132.11 27.7279C133.62 27.0368 134.951 26.0898 136.103 24.8868C137.255 23.6582 138.215 22.2504 138.982 20.6635C139.75 19.0766 140.326 17.3744 140.71 15.5571C141.094 13.7142 141.286 11.833 141.286 9.91327C141.286 7.60965 140.697 5.86913 139.52 4.69173C138.343 3.51432 136.423 2.92562 133.761 2.92562C133.019 2.92562 132.443 3.0152 132.033 3.19438C131.624 3.37355 131.291 3.69349 131.035 4.15422C130.779 4.61494 130.523 5.30603 130.267 6.22748L125.237 25.4243C125.033 26.1922 124.918 26.8321 124.892 27.344C124.866 27.8303 125.007 28.1887 125.314 28.419C125.647 28.6238 126.236 28.7262 127.08 28.7262ZM147.124 23.4278C146.228 24.682 145.716 25.6931 145.588 26.4609C145.46 27.2032 145.652 27.7535 146.164 28.1119C146.676 28.4446 147.457 28.6238 148.506 28.6494L148.314 29.4173C147.469 29.3661 146.663 29.3405 145.895 29.3405C145.127 29.3149 144.398 29.3021 143.707 29.3021C143.093 29.3021 141.581 29.3149 141.171 29.3405C140.736 29.3405 141.314 29.3661 140.904 29.4173L141.096 28.6494C141.48 28.547 141.877 28.3678 142.286 28.1119C142.67 27.8559 143.105 27.4848 143.592 26.9985C144.052 26.5121 144.552 25.8722 145.089 25.0788L161.483 2.04256C161.662 2.04256 161.829 2.04256 161.982 2.04256C162.161 2.04256 162.341 2.04256 162.52 2.04256L164.056 26.1922C164.132 27.1136 164.363 27.7535 164.747 28.1119C165.156 28.4446 165.553 28.6238 165.937 28.6494L165.783 29.4173C165.22 29.3661 164.503 29.3405 163.633 29.3405C162.763 29.3149 161.931 29.3021 161.138 29.3021C160.139 29.3021 159.192 29.3149 158.296 29.3405C157.401 29.3405 156.684 29.3661 156.146 29.4173L156.3 28.6494C157.529 28.5982 158.399 28.3806 158.911 27.9967C159.423 27.5872 159.653 26.7297 159.602 25.4243L159.103 16.1522L158.604 6.88017L159.218 6.38105L147.124 23.4278ZM150.387 18.3599H161.598L161.291 19.1278H149.696L150.387 18.3599ZM177.556 25.3475C177.325 26.269 177.236 26.9601 177.287 27.4208C177.364 27.8815 177.607 28.1887 178.017 28.3422C178.452 28.4958 179.104 28.5982 179.975 28.6494L179.783 29.4173C179.373 29.3917 178.874 29.3789 178.285 29.3789C177.697 29.3533 177.069 29.3405 176.404 29.3405C175.738 29.3149 175.073 29.3021 174.408 29.3021C173.332 29.3021 172.309 29.3149 171.336 29.3405C170.389 29.3405 169.608 29.3661 168.994 29.4173L169.186 28.6494C170.056 28.5982 170.735 28.4958 171.221 28.3422C171.707 28.1887 172.091 27.8815 172.373 27.4208C172.654 26.9601 172.91 26.269 173.141 25.3475L175.79 14.8277L177.517 17.2465L179.245 16.517L180.55 13.4455L177.556 25.3475ZM190.456 2.4649C190.047 2.49049 189.663 2.58008 189.304 2.73365C188.946 2.88723 188.6 3.09199 188.268 3.34795C187.474 3.91106 186.54 4.8581 185.465 6.18908C184.39 7.49447 183.276 9.20939 182.125 11.3338C180.998 13.4327 179.911 16.0051 178.861 19.051L175.598 19.2429C175.495 18.0655 175.355 16.7985 175.175 15.442C175.022 14.0598 174.817 12.7032 174.561 11.3722C174.331 10.0413 174.036 8.82545 173.678 7.72483C173.345 6.59862 172.949 5.70276 172.488 5.03727C172.027 4.37178 171.49 4.03904 170.875 4.03904C170.44 4.03904 170.069 4.19261 169.762 4.49976C169.48 4.78132 169.25 5.22924 169.071 5.84354L168.073 8.76146C168.073 8.76146 167.932 8.76146 167.65 8.76146C167.369 8.76146 167.228 8.76146 167.228 8.76146L168.418 5.30603C168.828 4.05183 169.352 3.14318 169.992 2.58008C170.658 1.99137 171.566 1.69702 172.718 1.69702C174.228 1.69702 175.419 2.26013 176.289 3.38634C177.159 4.48696 177.825 6.0739 178.285 8.14716C178.746 10.2204 179.13 12.6776 179.437 15.5187C180.384 13.0615 181.446 10.8859 182.624 8.99182C183.801 7.07214 185.03 5.4596 186.31 4.15422C186.898 3.53992 187.589 2.97681 188.383 2.4649C189.176 1.95298 189.995 1.69702 190.84 1.69702C191.813 1.69702 192.504 1.96578 192.913 2.50329C193.323 3.0408 193.515 3.6551 193.489 4.34619C193.464 4.98608 193.22 5.61318 192.76 6.22748C192.299 6.81618 191.646 7.11053 190.802 7.11053C190.136 7.11053 189.65 6.91856 189.343 6.53463C189.061 6.15069 188.933 5.71556 188.959 5.22924C188.984 4.66613 189.163 4.15422 189.496 3.69349C189.829 3.20718 190.238 2.82324 190.725 2.54168C190.699 2.51609 190.661 2.50329 190.61 2.50329C190.558 2.47769 190.507 2.4649 190.456 2.4649ZM212.628 1.96578C212.372 2.63127 212.027 3.60391 211.592 4.8837C211.157 6.13789 210.747 7.77602 210.363 9.79809H209.595C209.672 9.43975 209.723 9.06861 209.749 8.68467C209.8 8.30074 209.826 7.9424 209.826 7.60965C209.826 6.66261 209.621 5.80515 209.211 5.03727C208.827 4.2438 208.239 3.6295 207.445 3.19438C206.652 2.73365 205.615 2.50329 204.335 2.50329C202.902 2.50329 201.686 2.87443 200.688 3.61671C199.715 4.35898 199.229 5.53639 199.229 7.14892C199.229 8.09597 199.459 8.99182 199.92 9.83648C200.381 10.6555 200.957 11.449 201.648 12.2169C202.364 12.9848 203.132 13.7526 203.951 14.5205C204.77 15.2884 205.538 16.0819 206.255 16.9009C206.972 17.6944 207.56 18.539 208.021 19.4349C208.482 20.3308 208.712 21.3162 208.712 22.3912C208.712 23.7222 208.392 24.874 207.752 25.8466C207.138 26.7937 206.332 27.5744 205.334 28.1887C204.361 28.7774 203.286 29.2125 202.108 29.494C200.957 29.8012 199.818 29.9548 198.691 29.9548C197.616 29.9548 196.708 29.8652 195.965 29.686C195.249 29.5068 194.647 29.2765 194.161 28.9949C193.675 28.7134 193.24 28.4446 192.856 28.1887C192.574 27.9839 192.305 27.8431 192.049 27.7663C191.819 27.6639 191.627 27.6128 191.473 27.6128C191.141 27.6128 190.859 27.7791 190.629 28.1119C190.424 28.4446 190.181 28.9693 189.899 29.686H189.131C189.362 29.1229 189.605 28.4702 189.861 27.7279C190.117 26.9857 190.398 26.0386 190.706 24.8868C191.013 23.7094 191.358 22.2376 191.742 20.4715H192.51C192.382 20.9834 192.28 21.4954 192.203 22.0073C192.152 22.5192 192.139 23.0311 192.165 23.543C192.241 25.3091 192.779 26.6913 193.777 27.6895C194.801 28.6622 196.349 29.1485 198.423 29.1485C200.112 29.1485 201.43 28.7774 202.377 28.0351C203.35 27.2928 203.836 26.1538 203.836 24.618C203.836 23.543 203.619 22.5832 203.183 21.7385C202.774 20.8683 202.236 20.062 201.571 19.3197C200.931 18.5518 200.24 17.8096 199.498 17.0929C198.755 16.3762 198.052 15.6339 197.386 14.8661C196.746 14.0982 196.221 13.2535 195.812 12.3321C195.402 11.4106 195.198 10.3868 195.198 9.26058C195.198 8.00638 195.454 6.90577 195.965 5.95872C196.477 5.01168 197.156 4.23101 198 3.61671C198.845 2.97681 199.779 2.50329 200.803 2.19614C201.853 1.86339 202.902 1.69702 203.951 1.69702C205.18 1.69702 206.204 1.8506 207.023 2.15775C207.868 2.4393 208.635 2.83603 209.326 3.34795C209.608 3.55272 209.851 3.71909 210.056 3.84707C210.286 3.94945 210.465 4.00064 210.593 4.00064C210.952 4.00064 211.374 3.32235 211.86 1.96578H212.628Z"/>
</mask>
<path d="M145.817 10.9499C145.817 12.7928 145.548 14.6101 145.01 16.4018C144.473 18.1935 143.666 19.87 142.591 21.4314C141.542 22.9927 140.262 24.3749 138.752 25.5779C137.268 26.7553 135.565 27.6895 133.646 28.3806C131.752 29.0717 129.666 29.4173 127.388 29.4173C127.004 29.4173 126.492 29.4045 125.852 29.3789C125.237 29.3533 124.585 29.3405 123.894 29.3405C123.203 29.3149 122.524 29.3021 121.859 29.3021C121.27 29.3021 120.656 29.3149 120.016 29.3405C119.402 29.3405 118.813 29.3533 118.25 29.3789C117.712 29.3789 117.252 29.3917 116.868 29.4173L116.983 28.6494C117.802 28.5982 118.442 28.4958 118.903 28.3422C119.389 28.1887 119.773 27.8815 120.054 27.4208C120.336 26.9601 120.592 26.269 120.822 25.3475L125.852 6.30426C126.082 5.4852 126.197 4.8453 126.197 4.38458C126.197 3.89826 126.005 3.55272 125.621 3.34795C125.237 3.14318 124.572 3.028 123.625 3.00241L123.74 2.23454C124.15 2.26013 124.636 2.28573 125.199 2.31132C125.788 2.33692 126.415 2.34971 127.08 2.34971C127.746 2.34971 128.373 2.34971 128.962 2.34971C129.525 2.32412 130.165 2.31132 130.881 2.31132C131.598 2.28573 132.302 2.27293 132.993 2.27293C133.684 2.24733 134.273 2.23454 134.759 2.23454C138.419 2.23454 141.171 2.97681 143.014 4.46137C144.882 5.92033 145.817 8.08317 145.817 10.9499ZM127.08 28.7262C128.949 28.7262 130.625 28.3934 132.11 27.7279C133.62 27.0368 134.951 26.0898 136.103 24.8868C137.255 23.6582 138.215 22.2504 138.982 20.6635C139.75 19.0766 140.326 17.3744 140.71 15.5571C141.094 13.7142 141.286 11.833 141.286 9.91327C141.286 7.60965 140.697 5.86913 139.52 4.69173C138.343 3.51432 136.423 2.92562 133.761 2.92562C133.019 2.92562 132.443 3.0152 132.033 3.19438C131.624 3.37355 131.291 3.69349 131.035 4.15422C130.779 4.61494 130.523 5.30603 130.267 6.22748L125.237 25.4243C125.033 26.1922 124.918 26.8321 124.892 27.344C124.866 27.8303 125.007 28.1887 125.314 28.419C125.647 28.6238 126.236 28.7262 127.08 28.7262ZM147.124 23.4278C146.228 24.682 145.716 25.6931 145.588 26.4609C145.46 27.2032 145.652 27.7535 146.164 28.1119C146.676 28.4446 147.457 28.6238 148.506 28.6494L148.314 29.4173C147.469 29.3661 146.663 29.3405 145.895 29.3405C145.127 29.3149 144.398 29.3021 143.707 29.3021C143.093 29.3021 141.581 29.3149 141.171 29.3405C140.736 29.3405 141.314 29.3661 140.904 29.4173L141.096 28.6494C141.48 28.547 141.877 28.3678 142.286 28.1119C142.67 27.8559 143.105 27.4848 143.592 26.9985C144.052 26.5121 144.552 25.8722 145.089 25.0788L161.483 2.04256C161.662 2.04256 161.829 2.04256 161.982 2.04256C162.161 2.04256 162.341 2.04256 162.52 2.04256L164.056 26.1922C164.132 27.1136 164.363 27.7535 164.747 28.1119C165.156 28.4446 165.553 28.6238 165.937 28.6494L165.783 29.4173C165.22 29.3661 164.503 29.3405 163.633 29.3405C162.763 29.3149 161.931 29.3021 161.138 29.3021C160.139 29.3021 159.192 29.3149 158.296 29.3405C157.401 29.3405 156.684 29.3661 156.146 29.4173L156.3 28.6494C157.529 28.5982 158.399 28.3806 158.911 27.9967C159.423 27.5872 159.653 26.7297 159.602 25.4243L159.103 16.1522L158.604 6.88017L159.218 6.38105L147.124 23.4278ZM150.387 18.3599H161.598L161.291 19.1278H149.696L150.387 18.3599ZM177.556 25.3475C177.325 26.269 177.236 26.9601 177.287 27.4208C177.364 27.8815 177.607 28.1887 178.017 28.3422C178.452 28.4958 179.104 28.5982 179.975 28.6494L179.783 29.4173C179.373 29.3917 178.874 29.3789 178.285 29.3789C177.697 29.3533 177.069 29.3405 176.404 29.3405C175.738 29.3149 175.073 29.3021 174.408 29.3021C173.332 29.3021 172.309 29.3149 171.336 29.3405C170.389 29.3405 169.608 29.3661 168.994 29.4173L169.186 28.6494C170.056 28.5982 170.735 28.4958 171.221 28.3422C171.707 28.1887 172.091 27.8815 172.373 27.4208C172.654 26.9601 172.91 26.269 173.141 25.3475L175.79 14.8277L177.517 17.2465L179.245 16.517L180.55 13.4455L177.556 25.3475ZM190.456 2.4649C190.047 2.49049 189.663 2.58008 189.304 2.73365C188.946 2.88723 188.6 3.09199 188.268 3.34795C187.474 3.91106 186.54 4.8581 185.465 6.18908C184.39 7.49447 183.276 9.20939 182.125 11.3338C180.998 13.4327 179.911 16.0051 178.861 19.051L175.598 19.2429C175.495 18.0655 175.355 16.7985 175.175 15.442C175.022 14.0598 174.817 12.7032 174.561 11.3722C174.331 10.0413 174.036 8.82545 173.678 7.72483C173.345 6.59862 172.949 5.70276 172.488 5.03727C172.027 4.37178 171.49 4.03904 170.875 4.03904C170.44 4.03904 170.069 4.19261 169.762 4.49976C169.48 4.78132 169.25 5.22924 169.071 5.84354L168.073 8.76146C168.073 8.76146 167.932 8.76146 167.65 8.76146C167.369 8.76146 167.228 8.76146 167.228 8.76146L168.418 5.30603C168.828 4.05183 169.352 3.14318 169.992 2.58008C170.658 1.99137 171.566 1.69702 172.718 1.69702C174.228 1.69702 175.419 2.26013 176.289 3.38634C177.159 4.48696 177.825 6.0739 178.285 8.14716C178.746 10.2204 179.13 12.6776 179.437 15.5187C180.384 13.0615 181.446 10.8859 182.624 8.99182C183.801 7.07214 185.03 5.4596 186.31 4.15422C186.898 3.53992 187.589 2.97681 188.383 2.4649C189.176 1.95298 189.995 1.69702 190.84 1.69702C191.813 1.69702 192.504 1.96578 192.913 2.50329C193.323 3.0408 193.515 3.6551 193.489 4.34619C193.464 4.98608 193.22 5.61318 192.76 6.22748C192.299 6.81618 191.646 7.11053 190.802 7.11053C190.136 7.11053 189.65 6.91856 189.343 6.53463C189.061 6.15069 188.933 5.71556 188.959 5.22924C188.984 4.66613 189.163 4.15422 189.496 3.69349C189.829 3.20718 190.238 2.82324 190.725 2.54168C190.699 2.51609 190.661 2.50329 190.61 2.50329C190.558 2.47769 190.507 2.4649 190.456 2.4649ZM212.628 1.96578C212.372 2.63127 212.027 3.60391 211.592 4.8837C211.157 6.13789 210.747 7.77602 210.363 9.79809H209.595C209.672 9.43975 209.723 9.06861 209.749 8.68467C209.8 8.30074 209.826 7.9424 209.826 7.60965C209.826 6.66261 209.621 5.80515 209.211 5.03727C208.827 4.2438 208.239 3.6295 207.445 3.19438C206.652 2.73365 205.615 2.50329 204.335 2.50329C202.902 2.50329 201.686 2.87443 200.688 3.61671C199.715 4.35898 199.229 5.53639 199.229 7.14892C199.229 8.09597 199.459 8.99182 199.92 9.83648C200.381 10.6555 200.957 11.449 201.648 12.2169C202.364 12.9848 203.132 13.7526 203.951 14.5205C204.77 15.2884 205.538 16.0819 206.255 16.9009C206.972 17.6944 207.56 18.539 208.021 19.4349C208.482 20.3308 208.712 21.3162 208.712 22.3912C208.712 23.7222 208.392 24.874 207.752 25.8466C207.138 26.7937 206.332 27.5744 205.334 28.1887C204.361 28.7774 203.286 29.2125 202.108 29.494C200.957 29.8012 199.818 29.9548 198.691 29.9548C197.616 29.9548 196.708 29.8652 195.965 29.686C195.249 29.5068 194.647 29.2765 194.161 28.9949C193.675 28.7134 193.24 28.4446 192.856 28.1887C192.574 27.9839 192.305 27.8431 192.049 27.7663C191.819 27.6639 191.627 27.6128 191.473 27.6128C191.141 27.6128 190.859 27.7791 190.629 28.1119C190.424 28.4446 190.181 28.9693 189.899 29.686H189.131C189.362 29.1229 189.605 28.4702 189.861 27.7279C190.117 26.9857 190.398 26.0386 190.706 24.8868C191.013 23.7094 191.358 22.2376 191.742 20.4715H192.51C192.382 20.9834 192.28 21.4954 192.203 22.0073C192.152 22.5192 192.139 23.0311 192.165 23.543C192.241 25.3091 192.779 26.6913 193.777 27.6895C194.801 28.6622 196.349 29.1485 198.423 29.1485C200.112 29.1485 201.43 28.7774 202.377 28.0351C203.35 27.2928 203.836 26.1538 203.836 24.618C203.836 23.543 203.619 22.5832 203.183 21.7385C202.774 20.8683 202.236 20.062 201.571 19.3197C200.931 18.5518 200.24 17.8096 199.498 17.0929C198.755 16.3762 198.052 15.6339 197.386 14.8661C196.746 14.0982 196.221 13.2535 195.812 12.3321C195.402 11.4106 195.198 10.3868 195.198 9.26058C195.198 8.00638 195.454 6.90577 195.965 5.95872C196.477 5.01168 197.156 4.23101 198 3.61671C198.845 2.97681 199.779 2.50329 200.803 2.19614C201.853 1.86339 202.902 1.69702 203.951 1.69702C205.18 1.69702 206.204 1.8506 207.023 2.15775C207.868 2.4393 208.635 2.83603 209.326 3.34795C209.608 3.55272 209.851 3.71909 210.056 3.84707C210.286 3.94945 210.465 4.00064 210.593 4.00064C210.952 4.00064 211.374 3.32235 211.86 1.96578H212.628Z" stroke="#222222" stroke-width="1.5" mask="url(#path-2-outside-1_16_230)"/>
</svg>
