<svg preserveAspectRatio="none" width="80" height="40" viewBox="0 0 80 40" fill="none" xmlns="http://www.w3.org/2000/svg">
<path d="M24.3037 30.8191V32.5355C23.0706 32.6088 21.7807 32.6429 20.5034 32.6164C20.6244 32.5077 20.7379 32.3927 20.8426 32.2726C21.1956 31.8593 21.4503 31.3916 21.6042 30.8899C22.507 30.9 23.4198 30.8734 24.3037 30.8191ZM10.0632 31.0264C10.8349 31.2665 12.0554 31.6166 13.711 31.9288V29.9293C12.7073 29.7081 11.9066 29.4857 11.4149 29.31C11.3934 29.3024 11.372 29.2936 11.3506 29.2847C11.2752 29.4543 11.1549 29.5999 11.0026 29.7056C10.8323 29.8219 10.6331 29.8825 10.4326 29.8825C10.3091 29.8825 10.1868 29.8598 10.0682 29.8143L9.9535 29.7701C9.92576 29.7599 9.89928 29.7473 9.87406 29.7347C9.03935 29.3252 8.23742 29.0888 7.53385 29.0433C8.18321 30.0064 8.85526 30.651 10.0632 31.0264ZM78.7315 12.0527C78.4843 11.695 78.0191 11.446 77.1869 11.3196C74.4949 10.9088 71.7802 10.4425 69.0629 10.2541C67.246 10.129 65.395 10.0494 63.573 10.0898C56.5069 10.2453 48.9176 11.7038 47.5143 12.2233C46.1134 12.7453 42.7342 13.8916 41.7482 14.1002C40.7609 14.3087 39.9829 14.2557 39.9829 14.2557C39.9829 14.2557 39.2012 14.3087 38.2177 14.1002C37.2291 13.8929 33.8525 12.7466 32.4491 12.2233C31.0432 11.7038 23.4589 10.2453 16.3916 10.0898C11.8524 9.98872 6.97527 10.3376 2.54953 11.4119C0.866241 11.8201 0.948199 12.5759 1.06924 14.1154C1.13985 15.0127 1.19407 15.9101 1.27477 16.8075C1.27477 16.8075 1.48156 17.3295 1.53451 17.4837C1.58621 17.6416 2.26835 18.4746 2.8925 18.994C3.51412 19.516 4.24291 22.5342 4.60731 23.3697C4.78888 23.7867 5.19363 24.6614 5.65511 25.608C6.15569 25.4968 6.6777 25.4387 7.22367 25.4387C7.42415 25.4387 7.62841 25.45 7.83394 25.4665C7.77846 25.3578 7.7255 25.2491 7.67507 25.1416C5.90729 21.3398 6.00943 17.174 6.00943 17.174C6.06238 16.7038 6.00943 14.6513 6.68652 13.7665C7.36236 12.8805 7.41406 12.7162 8.66108 12.3509C9.90685 11.9869 15.0891 11.7051 19.0382 11.9136C22.9861 12.1222 29.6903 13.3191 30.989 13.788C32.289 14.2569 33.2762 14.7776 34.1614 15.924C35.0428 17.0704 35.5622 17.6442 35.4046 19.1545C35.2508 20.6649 33.85 25.9758 33.275 27.1222C32.7946 28.0853 32.0923 29.0825 30.6511 29.717H30.9814C31.5387 29.717 31.9927 30.1695 31.9927 30.7281V31.3626C33.5398 30.6068 34.58 28.5567 35.1474 27.2789C35.7703 25.8734 36.3427 24.2064 36.8597 22.7478C37.3792 21.2893 38.2139 18.7387 38.625 18.3747C39.0436 18.0094 39.9792 18.1662 39.9792 18.1662C39.9792 18.1662 40.9135 18.0107 41.3271 18.3747C41.7444 18.74 42.5766 21.2905 43.0961 22.7478C43.6143 24.2064 44.1842 25.8734 44.8084 27.2789C45.4325 28.6856 46.6266 31.0302 48.4486 31.5509C48.6402 31.6065 48.8748 31.6634 49.1395 31.7215V29.6424C48.9403 29.5476 48.755 29.4452 48.5848 29.3378H47.7526C47.1952 29.3378 46.7439 28.8853 46.7439 28.3267V27.2473C46.7224 27.2056 46.6997 27.1639 46.6795 27.1222C46.1096 25.9758 44.705 20.6649 44.5512 19.1545C44.3935 17.6442 44.913 17.0704 45.7982 15.924C46.6795 14.7789 47.6681 14.2569 48.9693 13.788C50.2655 13.3191 56.971 12.1209 60.9188 11.9136C64.8692 11.7051 70.0515 11.9869 71.2972 12.3509C72.5443 12.7162 72.5972 12.8805 73.2718 13.7665C73.9476 14.6513 73.8947 16.7038 73.9476 17.174C73.9476 17.174 74.0523 21.3398 72.2858 25.1416C71.4523 26.9364 69.8422 28.8398 68.5409 29.3087C67.86 29.5539 66.5815 29.8863 64.9953 30.1834C65.0984 30.3453 65.1531 30.5334 65.1529 30.7256V32.1184C67.3733 31.7683 68.9608 31.3183 69.8951 31.0276C71.4006 30.5587 72.0765 29.6753 72.9099 28.2673C73.7396 26.8606 74.9879 24.2038 75.3497 23.3709C75.7141 22.5355 76.4417 19.5173 77.0646 18.9953C77.6887 18.4758 78.3708 17.6429 78.4213 17.4849C78.4742 17.3295 78.6823 16.8087 78.6823 16.8075C78.7428 16.1212 78.7995 15.4349 78.8525 14.7486C78.9496 13.5731 79.1488 12.6568 78.7315 12.0527ZM57.3379 30.8861C55.6848 30.857 54.0532 30.7155 52.6726 30.5183V32.2764C54.0822 32.4382 55.6874 32.5633 57.3379 32.6088V30.8861ZM75.4531 35.8595L75.3913 35.8406L75.3737 35.9038C75.2993 36.1856 75.1568 36.4081 74.9526 36.5661C74.7483 36.7241 74.5112 36.8049 74.2477 36.8049C73.8631 36.8049 73.5706 36.6811 73.355 36.4245C73.1394 36.1692 73.0297 35.809 73.0297 35.3527C73.0297 34.8952 73.1419 34.5236 73.3638 34.2468C73.5845 33.97 73.8669 33.836 74.2275 33.836C74.7748 33.836 75.1316 34.0711 75.317 34.5552L75.3359 34.607L75.3901 34.5944L75.9764 34.4516L76.0407 34.4364L76.0231 34.3732C75.9108 33.9852 75.7015 33.6844 75.4002 33.4771C75.1001 33.2711 74.7256 33.1674 74.2893 33.1674C73.6728 33.1674 73.1722 33.3608 72.799 33.7412C72.4257 34.1217 72.2366 34.6323 72.2366 35.2592C72.2366 35.9569 72.4182 36.513 72.7775 36.9136C73.1381 37.3156 73.6362 37.5203 74.2603 37.5203C74.7092 37.5203 75.1051 37.3964 75.438 37.15C75.7721 36.9035 75.9966 36.5547 76.105 36.1148L76.1189 36.0554L76.0609 36.039L75.4531 35.8595ZM78.0203 35.3123C78.0203 36.3487 77.6471 37.2486 76.9107 37.988C76.1744 38.7273 75.2791 39.1027 74.2477 39.1027C73.2113 39.1027 72.311 38.7286 71.5734 37.9905C70.8357 37.2524 70.4613 36.3512 70.4613 35.3123C70.4613 34.2759 70.8357 33.3772 71.5734 32.6391C72.311 31.901 73.2113 31.5269 74.2477 31.5269C75.2779 31.5269 76.1744 31.901 76.9107 32.6391C77.6471 33.3772 78.0203 34.2771 78.0203 35.3123ZM76.3849 37.4647C76.9776 36.8669 77.2776 36.1439 77.2776 35.3123C77.2776 34.4806 76.9776 33.7589 76.3849 33.1649C75.7923 32.5709 75.0736 32.2701 74.2477 32.2701C73.4155 32.2701 72.6918 32.5709 72.0979 33.1649C71.504 33.7589 71.2027 34.4806 71.2027 35.3123C71.2027 36.1465 71.504 36.8719 72.0979 37.4672C72.6918 38.0625 73.4155 38.3646 74.2477 38.3646C75.0736 38.3646 75.7936 38.0625 76.3849 37.4647ZM7.22367 26.451C5.66142 26.451 4.30722 26.9907 3.19889 28.0562C2.08931 29.1217 1.52695 30.421 1.52695 31.9174C1.52695 33.4404 2.0994 34.7599 3.22789 35.8393C4.35513 36.9174 5.73203 37.4634 7.32076 37.4634C8.40386 37.4634 9.44788 37.2132 10.3759 36.7177L10.4339 36.6811V34.928L10.3141 35.0102C9.31423 35.5739 8.34334 35.8608 7.45189 35.8608C6.22504 35.8608 5.1848 35.4816 4.37026 34.7359C3.55825 33.9902 3.14341 33.0486 3.14341 31.9339C3.14341 30.8406 3.54438 29.9053 4.33874 29.1545C5.13437 28.4025 6.12543 28.0221 7.28797 28.0221C8.19708 28.0221 9.23227 28.2926 10.3179 28.8259L10.4326 28.8702V27.1588L10.3696 27.131C9.30036 26.6786 8.22482 26.451 7.22367 26.451ZM20.9498 37.0463L21.0166 37.1715H19.3005L19.2475 37.0969L16.4383 32.8742H16.234V37.1715H14.7222V26.8075H16.9767C18.085 26.8075 19.0017 27.0704 19.7002 27.6252C20.4038 28.1839 20.7606 28.8904 20.7606 29.7625C20.7606 30.4589 20.5299 31.0833 20.0747 31.6166C19.6346 32.1323 18.95 32.5039 18.0383 32.7225L20.9498 37.0463ZM16.3689 31.5711C18.2641 31.5711 19.1795 31.0062 19.1795 29.8434C19.1795 29.4288 19.0647 29.0838 18.8365 28.8221C18.6058 28.558 18.2968 28.376 17.911 28.2799C17.5277 28.1851 16.9905 28.1358 16.234 28.1333V31.5699C16.234 31.5711 16.3223 31.5711 16.3689 31.5711ZM18.7533 31.0099C18.776 30.9897 18.7999 30.9708 18.8201 30.9493C18.7987 30.9695 18.776 30.9897 18.7533 31.0099ZM19.1719 30.3451C19.1795 30.3199 19.1883 30.2958 19.1946 30.2693C19.1883 30.2958 19.1782 30.3186 19.1719 30.3451ZM19.0092 30.7091C19.0244 30.6851 19.0408 30.6624 19.0534 30.6384C19.0395 30.6624 19.0244 30.6851 19.0092 30.7091ZM18.8932 30.8671C18.9121 30.8456 18.9323 30.8242 18.9487 30.8014C18.9311 30.8242 18.9109 30.8456 18.8932 30.8671ZM19.2286 30.0633C19.2261 30.0873 19.2211 30.1075 19.2173 30.1315C19.2211 30.1088 19.2261 30.0873 19.2286 30.0633ZM16.4458 31.6331C16.5051 31.6331 16.5618 31.6305 16.6198 31.6293L16.4458 31.6331ZM18.5894 31.1376C18.6158 31.1186 18.6423 31.1009 18.6675 31.082C18.6436 31.1022 18.6158 31.1199 18.5894 31.1376ZM18.404 31.2514C18.4343 31.2349 18.4645 31.2198 18.4935 31.2021C18.4645 31.2185 18.4343 31.2349 18.404 31.2514ZM17.9602 31.4334C17.9993 31.422 18.0371 31.4093 18.0737 31.3967C18.0371 31.4093 17.9993 31.4207 17.9602 31.4334ZM17.7042 31.5016C17.7471 31.4915 17.7887 31.4814 17.829 31.4713C17.7887 31.4826 17.7471 31.4928 17.7042 31.5016ZM17.4243 31.5572C17.4709 31.5496 17.5163 31.5421 17.5617 31.5332C17.5176 31.5408 17.4709 31.5484 17.4243 31.5572ZM25.3326 26.8075H25.3124V37.1715H30.9852V35.6548H26.8243V32.2423H30.9852V30.7243H26.8243V28.3229H30.9852V26.8062H25.3326V26.8075ZM40.6172 39.0673L39.8014 37.2979H36.5747L40.0876 29.4806L44.0367 38.1826H46.0781L40.1317 25.0089L40.0561 24.8282L39.9817 24.9874L33.7566 38.8904L33.7049 39.0686H33.792L40.6172 39.0673ZM47.8005 26.8075H47.7551V28.3242H50.1508V37.1715H51.6651V28.3242H54.0608V26.8075H47.8005ZM64.0937 26.8075H58.3479V37.1715H64.148V35.6548H59.8609V32.2423H64.148V30.7243H59.8609V28.3229H64.148V26.8062H64.0937V26.8075ZM42.8376 8.2281V5.58149C42.8376 5.21495 42.9637 4.90782 43.1705 4.65884C43.3773 4.40985 43.6547 4.28472 43.9522 4.28472C44.4528 4.28472 44.7277 4.59059 44.7277 5.20231V8.2281H45.7364V5.67249C45.7364 5.2832 45.8108 4.95712 46.0125 4.69296C46.2143 4.42881 46.4538 4.29736 46.7439 4.29736C47.2533 4.29736 47.5016 4.5552 47.5016 5.0734V8.2281H48.5104V4.81682C48.5104 4.43513 48.3565 4.10651 48.0892 3.82845C47.8207 3.55166 47.4928 3.41263 47.1221 3.41263C46.8195 3.41263 46.5497 3.48973 46.3214 3.64519C46.0932 3.80065 45.8537 4.04711 45.6078 4.3871C45.4678 4.04711 45.2963 3.80065 45.0959 3.64519C44.8941 3.49099 44.6167 3.41263 44.2624 3.41263C43.9913 3.41263 43.7291 3.48088 43.5185 3.61612C43.3092 3.75262 43.0898 3.96748 42.8376 4.26197V3.55166H41.955V8.2281H42.8376ZM53.6813 4.49453C53.4291 4.1735 53.2274 3.91313 52.8995 3.71344C52.5717 3.51374 52.2149 3.41389 51.8505 3.41389C51.2591 3.41389 50.7396 3.65909 50.3008 4.14696C49.862 4.63609 49.6401 5.20611 49.6401 5.85954C49.6401 6.5509 49.857 7.13735 50.2907 7.62016C50.7257 8.10297 51.2692 8.34438 51.8833 8.34438C52.5919 8.34438 53.1769 7.99175 53.6813 7.28523V8.22683H54.5639V3.55039H53.6813V4.49453ZM53.3194 6.98821C53.0143 7.2966 52.6486 7.44953 52.2224 7.44953C51.7925 7.44953 51.4268 7.29407 51.1242 6.98568C50.8216 6.67603 50.6715 6.30065 50.6715 5.85954C50.6715 5.4513 50.8266 5.09741 51.1355 4.79534C51.4445 4.49326 51.8076 4.34286 52.2224 4.34286C52.6486 4.34286 53.0143 4.49453 53.3194 4.79787C53.6245 5.1012 53.7784 5.46647 53.7784 5.89367C53.7784 6.31581 53.6258 6.68108 53.3194 6.98821ZM56.077 6.33224H58.7249V5.44751H56.077V6.33224ZM62.0032 7.05393L60.4649 10.3767H61.4913L64.6385 3.55166H63.6247L62.4558 6.08831L60.7662 3.55166H59.6516L62.0032 7.05393ZM69.6946 4.49453C69.4425 4.1735 69.242 3.91313 68.9141 3.71344C68.5863 3.51374 68.232 3.41263 67.8663 3.41263C67.275 3.41263 66.7555 3.65782 66.3167 4.14569C65.8779 4.63482 65.656 5.20484 65.656 5.85828C65.656 6.54963 65.8729 7.13609 66.3079 7.6189C66.7429 8.10171 67.2851 8.34311 67.8979 8.34311C68.6052 8.34311 69.189 7.99048 69.6934 7.28396V8.22557H70.7021V3.54913H69.6934L69.6946 4.49453ZM69.3365 6.98821C69.0314 7.2966 68.6645 7.44953 68.2383 7.44953C67.8083 7.44953 67.4427 7.29407 67.1401 6.98568C66.8374 6.67729 66.6874 6.30065 66.6874 5.85954C66.6874 5.4513 66.8425 5.09741 67.1514 4.79534C67.4603 4.49326 67.8222 4.34286 68.237 4.34286C68.6632 4.34286 69.0289 4.49453 69.3353 4.79787C69.6404 5.1012 69.7943 5.46647 69.7943 5.89367C69.7955 6.31581 69.6417 6.68108 69.3365 6.98821ZM72.0903 2.16136H72.6968C72.6893 2.54053 72.5014 2.94119 72.1319 3.31152L72.5833 3.73113C72.8128 3.52006 73.0032 3.26981 73.1381 2.98669C73.273 2.70358 73.3487 2.43058 73.3487 2.174V0.897461H72.0878L72.0903 2.16136ZM75.9852 3.41389C75.5452 3.41389 75.1783 3.54281 74.887 3.80191C74.5957 4.05975 74.4482 4.38331 74.4482 4.77259C74.4482 5.08603 74.5503 5.34893 74.7559 5.56253C74.9614 5.77613 75.3308 5.98593 75.8654 6.19448C76.4001 6.40302 76.6674 6.63684 76.6674 6.89721C76.6674 7.04382 76.5917 7.174 76.4392 7.28523C76.2866 7.39645 76.1088 7.45206 75.9058 7.45206C75.612 7.45206 75.3296 7.32062 75.0585 7.0552L74.2843 7.42931C74.7054 8.04104 75.2463 8.34691 75.9045 8.34691C76.337 8.34691 76.714 8.20029 77.0343 7.90833C77.3546 7.61637 77.5147 7.27385 77.5147 6.88204C77.5147 6.54584 77.4037 6.2602 77.1806 6.02259C76.9586 5.78497 76.5942 5.56758 76.0874 5.36789C75.5805 5.16819 75.3283 4.96344 75.3283 4.75236C75.3283 4.45788 75.5275 4.31126 75.9272 4.31126C76.0962 4.31126 76.2437 4.34286 76.3673 4.40479C76.4909 4.46672 76.6384 4.55899 76.8073 4.67906L77.4617 4.10145C76.9183 3.64139 76.4253 3.41389 75.9852 3.41389Z" fill="white"/>
</svg>
